<svg width="16" height="16" viewBox="0 0 16 16" fill="none" xmlns="http://www.w3.org/2000/svg"><path d="M11 11.257a.313.313 0 100 .625.313.313 0 000-.625zM8.313 5.746a.313.313 0 10-.626 0 .313.313 0 00.626 0zM5 11.883a.313.313 0 100-.626.313.313 0 000 .626z" fill="#716F6F"/><path d="M15.814 13.37l-1.69-.752V5.746a.315.315 0 00-.191-.29l-5.62-2.421V.736a.313.313 0 10-.625 0v2.299L2.067 5.457a.315.315 0 00-.192.289v6.872l-1.69.753a.313.313 0 00.254.572l1.75-.78 5.688 2.451a.317.317 0 00.247 0l5.686-2.45 1.75.779a.313.313 0 00.254-.572zM7.688 3.718v.776a.313.313 0 10.625 0v-.776l4.708 2.029L8 7.91 2.979 5.746l4.709-2.03zM4.143 11.95a.312.312 0 00-.412-.159L2.5 12.34V6.221l5.188 2.236v6.394l-4.72-2.034 1.017-.452a.314.314 0 00.158-.414zm4.17 2.9V8.457L13.5 6.22v6.12l-1.23-.549a.313.313 0 00-.254.572l1.016.453-4.72 2.034z" fill="#716F6F"/></svg>