<svg width="14" height="14" viewBox="0 0 14 14" fill="none" xmlns="http://www.w3.org/2000/svg"><path d="M7 4.083A2.92 2.92 0 004.083 7 2.92 2.92 0 007 9.917 2.92 2.92 0 009.917 7 2.92 2.92 0 007 4.083zm0 5.25A2.336 2.336 0 014.667 7 2.336 2.336 0 017 4.667 2.336 2.336 0 019.333 7 2.336 2.336 0 017 9.333zM4.375 0H1.458A1.46 1.46 0 000 1.458v2.917a.292.292 0 00.583 0V1.458c0-.482.393-.875.875-.875h2.917a.292.292 0 000-.583zM12.542 0H9.625a.292.292 0 000 .583h2.917c.482 0 .875.393.875.875v2.917a.292.292 0 00.583 0V1.458A1.46 1.46 0 0012.542 0zM4.375 13.417H1.458a.876.876 0 01-.875-.875V9.625a.292.292 0 00-.583 0v2.917A1.46 1.46 0 001.458 14h2.917a.292.292 0 000-.583zM13.708 9.333a.292.292 0 00-.291.292v2.917a.876.876 0 01-.875.875H9.625a.292.292 0 000 .583h2.917A1.46 1.46 0 0014 12.542V9.625a.292.292 0 00-.292-.292z" fill="#716F6F"/></svg>