<svg width="46" height="57" viewBox="0 0 46 57" fill="none" xmlns="http://www.w3.org/2000/svg"><path d="M19.058 19.899a4.067 4.067 0 005.387-1.99 4.065 4.065 0 00-1.99-5.387 4.035 4.035 0 00-3.105-.12 4.034 4.034 0 00-2.282 2.11 4.034 4.034 0 00-.12 3.105 4.034 4.034 0 002.11 2.282zm-.473-4.689a2.375 2.375 0 011.343-1.243 2.389 2.389 0 011.829.072 2.394 2.394 0 011.171 3.171 2.393 2.393 0 01-3.171 1.172 2.375 2.375 0 01-1.243-1.344 2.375 2.375 0 01.071-1.828zM12.65 38.145l2.851 1.313a.832.832 0 001.108-.409.835.835 0 00-.41-1.108l-2.632-1.212 2.014-3.112a.831.831 0 00.057-.105c.29-.628.317-1.33.077-1.98a2.572 2.572 0 00-1.345-1.454 2.571 2.571 0 00-1.98-.077 2.572 2.572 0 00-1.454 1.346.85.85 0 00-.042.111l-1.056 3.553-2.096-.965c.62-6.313 2.406-14.581 4.405-20.345a.835.835 0 00-1.578-.547c-2.1 6.058-3.97 14.829-4.545 21.33a.835.835 0 00.483.832l2.85 1.313-1.002 3.375c-.19.638.111 1.303.716 1.581a1.316 1.316 0 001.667-.484l1.912-2.956zM12.475 32c.106-.2.28-.353.494-.432a.913.913 0 01.703.027.913.913 0 01.477.516.911.911 0 01-.008.657L10.64 38.18 12.475 32z" fill="#98B61D"/><path d="M45.562 11.236a.835.835 0 00-.788-.264l-3.238.652a.245.245 0 01-.125-.008l-3.163-1.034a4.262 4.262 0 00-5.37 2.724l-.349 1.07a15.5 15.5 0 00.047-1.34.869.869 0 00.006-.107C32.485 6.56 28.7.63 28.539.38a.833.833 0 00-.774-.377c-.013.001-.026 0-.039.002L27.7.01c-.546.077-7.332 1.096-12.136 5.08a.834.834 0 00-.08.076c-1.578 1.328-2.772 2.843-3.539 4.507l-.136.302a.835.835 0 001.522.686l.133-.293c.658-1.43 1.634-2.635 2.773-3.65l14.673 6.757c-.032 1.524-.315 3.05-.974 4.48-.91 1.977-2.4 4.503-4.32 7.323l-8.725-.974-.012-.002a2.572 2.572 0 00-2.807 2.31l-.003.048-.006.081v.034a2.64 2.64 0 00-.003.098v.01a2.55 2.55 0 00.586 1.61c.01.013.023.025.034.038a2.545 2.545 0 00.933.689l.07.029c.06.024.121.046.184.065l.038.011c.07.02.14.039.214.054l.016.003c.079.015.158.027.24.035l7.311.817-2.71 3.66-.003.003-1.34 1.81-.008.012a.841.841 0 00-.06.096c0 .003-.003.005-.004.008l-.259.464-.007.013-8.658 15.524a.835.835 0 00.294 1.12l3.828 2.335a.832.832 0 001.098-.205l6.985-9.128a.835.835 0 00-1.326-1.015l-6.529 8.531-2.5-1.526 6.678-11.974a4.034 4.034 0 001.544 1.735l7.695 4.752-2.297 8.232a.835.835 0 00.57 1.025l4.303 1.26a.834.834 0 001.039-.575l3.37-11.989a3.08 3.08 0 00-1.362-3.498l-5.062-3.06 5.115-6.909a4.357 4.357 0 00.862-2.607 4.409 4.409 0 00-1.777-3.528 4.395 4.395 0 00-5.229.009c1.22-1.871 2.235-3.593 2.997-5.088a5.12 5.12 0 005.096 5.517 5.1 5.1 0 004.859-3.524l.721-2.205a5.1 5.1 0 00.25-1.442 4.888 4.888 0 002.899-3.034l.974-2.983a.834.834 0 00-.17-.814zM17.715 5.56c3.655-2.528 8.172-3.528 9.7-3.81a29.857 29.857 0 012.454 5.477l.026.083a27.085 27.085 0 01.21.678l.028.1.065.231.043.157.047.18.044.17.046.189a22.693 22.693 0 01.15.66l.025.122c.05.25.097.502.138.757l.016.099a15.998 15.998 0 01.123.946L17.715 5.56zm-.457 22.276l-.703-.079-.012-.001a.865.865 0 01-.09-.014l-.01-.002a.902.902 0 01-.707-.775l-.001-.01a.818.818 0 01-.004-.067v-.024c-.001-.022 0-.043.002-.065l.001-.026c0-.006.002-.011.003-.017a.897.897 0 01.01-.07l.01-.038.011-.047.015-.042.014-.039.02-.043.015-.034a.822.822 0 01.025-.042l.018-.03a.824.824 0 01.083-.108l.019-.021a.897.897 0 01.04-.039l.02-.018a.873.873 0 01.11-.084l.022-.013a.866.866 0 01.05-.028l.024-.011a.886.886 0 01.052-.023l.026-.01a.794.794 0 01.052-.018l.03-.008a.85.85 0 01.052-.012c.011-.003.022-.004.034-.006l.05-.007.042-.002.044-.003c.029 0 .058.001.087.004l.79.088-.244 1.784zm15.905 14.498c.546.33.802.987.62 1.608L30.64 55.127l-2.703-.791 2.245-8.042a.835.835 0 00-.366-.935l-8.23-5.082a2.37 2.37 0 01-.828-3.17l.253-.454.852-1.15 11.3 6.83zm-.992-16.192c.7.518 1.1 1.315 1.1 2.186 0 .583-.184 1.142-.533 1.614l-5.208 7.034-4.669-2.822 2.744-3.706 4.15.464h.011a2.55 2.55 0 001.881-.573c.531-.436.86-1.052.926-1.735A2.553 2.553 0 0032 26.722a2.553 2.553 0 00-1.73-.924l-.533-.06a2.714 2.714 0 012.434.404zm-2.08 1.316l.011.001a.901.901 0 01-.169 1.792l-11.014-1.23.243-1.784 8.327.93.009.002 2.592.29zm9.931-8.468l-.721 2.206a3.433 3.433 0 01-4.341 2.201 3.446 3.446 0 01-2.204-4.34l.213-.652 1.73.566a.842.842 0 00.117.028l.024.004a.821.821 0 00.115.009h.014a.858.858 0 00.108-.01l.017-.001a.844.844 0 00.112-.027l.02-.007a.84.84 0 00.313-.19l.01-.011a.814.814 0 00.07-.08l.012-.014a.82.82 0 00.061-.098l.012-.023a.833.833 0 00.047-.112l.046-.137c.01-.034.023-.066.037-.098l.007-.014a1.04 1.04 0 01.04-.078l.002-.003a1.03 1.03 0 01.896-.515h.009c.026 0 .053.002.08.005.007 0 .014 0 .022.002.023.002.046.007.07.011l.032.006c.033.007.066.016.1.027l1.53.5c.094.032.19.058.285.084l.048.012c.094.024.189.044.284.062l.035.006c.2.037.401.06.603.07l.034.002c.083.004.167.007.25.006a3.452 3.452 0 01-.139.602zm3.148-4.475a3.21 3.21 0 01-2.349 2.127 3.184 3.184 0 01-1.68-.084l-1.53-.5a2.75 2.75 0 00-.208-.059l-.025-.006a2.65 2.65 0 00-.224-.042c-.545-.079-1.1.01-1.602.265l-.08.044-.016.009c-.254.141-.48.32-.671.53l-.008.008a2.685 2.685 0 00-.135.16l-.005.006a2.643 2.643 0 00-.128.179l-1.018-.333-.003-.001.978-2.993a2.59 2.59 0 013.263-1.655l3.163 1.034c.314.102.65.122.973.057l1.835-.37-.53 1.623zM9.132 53.425H.835a.835.835 0 100 1.67h8.297a.835.835 0 000-1.67zM9.132 48.632h-5.83a.835.835 0 000 1.67h5.83a.835.835 0 000-1.67zM9.132 43.839H6.665a.835.835 0 100 1.67h2.467a.835.835 0 100-1.67z" fill="#98B61D"/></svg>