<svg width="56" height="50" viewBox="0 0 56 50" fill="none" xmlns="http://www.w3.org/2000/svg"><path d="M38.383 3.754c-.353-.328-.381-.385-.381-.555 0-.17.028-.226.381-.554.151-.14.323-.3.485-.498a1.096 1.096 0 00-.142-1.531 1.069 1.069 0 00-1.516.143c-.07.085-.174.182-.284.284-.429.399-1.077 1.001-1.077 2.156 0 1.156.648 1.758 1.077 2.157.353.328.382.384.382.554 0 .17-.029.227-.382.555-.089.083-.19.176-.29.28a1.096 1.096 0 00.018 1.539 1.067 1.067 0 001.522-.019c.06-.061.132-.128.207-.198.43-.399 1.078-1.001 1.078-2.157 0-1.155-.648-1.758-1.078-2.156zM43.625 6.893c-.353-.328-.382-.385-.382-.555 0-.17.029-.226.382-.554.15-.14.322-.3.485-.498a1.096 1.096 0 00-.143-1.532 1.069 1.069 0 00-1.516.144c-.07.085-.173.182-.284.284-.429.399-1.077 1.001-1.077 2.156 0 1.156.648 1.758 1.077 2.157.354.328.382.384.382.554 0 .17-.028.227-.382.555-.089.083-.19.176-.29.28a1.096 1.096 0 00.018 1.538 1.067 1.067 0 001.523-.018c.06-.061.131-.128.207-.198.429-.4 1.077-1.002 1.077-2.157s-.648-1.757-1.077-2.156zM9.614 6.465c-.353-.328-.382-.385-.382-.555 0-.17.029-.226.382-.554.429-.399 1.077-1.001 1.077-2.156 0-1.156-.648-1.758-1.077-2.157C9.504.941 9.399.844 9.33.76A1.069 1.069 0 007.814.616a1.096 1.096 0 00-.142 1.531c.162.199.334.358.484.498.354.328.382.385.382.554 0 .17-.028.227-.382.555-.429.399-1.077 1.001-1.077 2.156 0 1.156.648 1.758 1.077 2.157.076.07.148.137.208.199a1.067 1.067 0 001.522.018c.426-.42.434-1.11.018-1.539-.1-.103-.201-.197-.29-.28zM4.373 9.604c-.354-.328-.382-.385-.382-.555 0-.17.028-.226.382-.554.429-.399 1.077-1.001 1.077-2.157 0-1.155-.648-1.757-1.077-2.156-.11-.102-.215-.2-.284-.284a1.069 1.069 0 00-1.516-.144 1.096 1.096 0 00-.143 1.532c.163.199.334.358.485.498.353.328.382.385.382.554 0 .17-.029.227-.382.555-.429.399-1.077 1.001-1.077 2.156 0 1.156.648 1.758 1.077 2.157.076.07.148.137.208.199a1.068 1.068 0 001.522.018c.425-.42.433-1.11.018-1.539-.1-.104-.201-.197-.29-.28zM23.27 3.922c-2.144 0-3.888 1.762-3.888 3.93 0 2.166 1.744 3.928 3.888 3.928s3.888-1.762 3.888-3.929-1.744-3.93-3.888-3.93zm0 5.682a1.746 1.746 0 01-1.735-1.753c0-.967.778-1.753 1.735-1.753.957 0 1.735.786 1.735 1.753 0 .967-.778 1.753-1.735 1.753zM38.783 23.253a1.108 1.108 0 00-.294-.557 1.036 1.036 0 00-.35-.235 1.048 1.048 0 00-.825 0 1.082 1.082 0 00-.642 1.218 1.074 1.074 0 00.16.39 1.042 1.042 0 00.298.302 1.077 1.077 0 001.359-.136 1.106 1.106 0 00.294-.981zM9.868 23.253a1.098 1.098 0 00-.458-.692 1.095 1.095 0 00-.387-.162 1.077 1.077 0 00-1.287 1.067 1.092 1.092 0 00.315.769 1.075 1.075 0 001.173.236 1.1 1.1 0 00.35-.236 1.102 1.102 0 00.294-.982z" fill="#98B61D"/><path d="M53.96 21.312a6 6 0 00-4.466-2.005c-.595 0-1.077.487-1.077 1.088V39.23h-8.134L46.12 16.59a1.097 1.097 0 00-.19-.94 1.073 1.073 0 00-.852-.422H28.29l-.201-1.356a7.803 7.803 0 002.89-6.08C30.979 3.494 27.52 0 23.27 0c-4.25 0-7.709 3.494-7.709 7.79a7.803 7.803 0 002.89 6.08l-.201 1.356H1.463c-.333 0-.648.156-.852.422a1.097 1.097 0 00-.19.94l7.234 28.064c.123.48.551.814 1.041.814h29.148c.49 0 .918-.334 1.041-.814l.333-1.291C39.612 47.088 42.741 50 46.532 50c4.037 0 7.325-3.305 7.355-7.378l1.594-16.619a6.134 6.134 0 00-1.522-4.692zM17.714 7.79c0-3.096 2.492-5.614 5.555-5.614 3.063 0 5.556 2.518 5.556 5.614 0 1.888-.932 3.639-2.493 4.684-.349.233-.532.65-.47 1.068l.25 1.684h-5.686l.25-1.684a1.093 1.093 0 00-.47-1.068 5.622 5.622 0 01-2.492-4.684zm-3.955 35.5l-3.24-16.04a1.077 1.077 0 00-1.27-.85c-.583.121-.96.696-.84 1.285l3.152 15.605H9.53L2.856 17.403H14.64l2.373 25.888H13.76zm10.587 0V22.353c0-.601-.483-1.088-1.077-1.088-.595 0-1.077.487-1.077 1.088V43.29h-3.017l-2.374-25.888h12.936L27.364 43.29h-3.017zm12.664 0h-2.033l3.152-15.605a1.088 1.088 0 00-.84-1.284 1.077 1.077 0 00-1.27.848l-3.24 16.041h-3.254L31.9 17.403h11.784L37.01 43.29zM53.338 25.79l-1.6 16.675c-.003.034-.005.07-.005.105 0 2.898-2.333 5.256-5.201 5.256-2.868 0-5.202-2.358-5.202-5.257v-1.162h8.164c.594 0 1.076-.487 1.076-1.088V21.634a3.82 3.82 0 011.791 1.137c.742.83 1.09 1.9.977 3.018z" fill="#98B61D"/></svg>