<svg width="57" height="57" viewBox="0 0 57 57" fill="none" xmlns="http://www.w3.org/2000/svg"><path d="M38.52 26.274c.614 0 1.113-.498 1.113-1.113v-3.34c0-.615-.499-1.113-1.114-1.113H25.16c-.615 0-1.113.498-1.113 1.113V48.54c0 .614.498 1.113 1.113 1.113h13.36a1.113 1.113 0 000-2.227H26.273v-4.453h5.567a1.113 1.113 0 000-2.226h-5.567v-4.453h11.133v5.566a1.113 1.113 0 002.227 0V31.84a1.113 1.113 0 00-2.227 0v2.227H26.273V22.934h4.454V28.5a1.113 1.113 0 002.226 0v-5.566h4.453v2.227c0 .614.499 1.113 1.114 1.113zM32.953 57a1.113 1.113 0 100-2.226 1.113 1.113 0 000 2.227z" fill="#98B61D"/><path d="M50.877 7.348a6.13 6.13 0 00-6.123 6.123v.557H18.926V9.463c0-5.217-4.245-9.462-9.463-9.462C4.245 0 0 4.246 0 9.463v38.075C0 52.756 4.245 57 9.463 57h18.48a1.113 1.113 0 000-2.227H15.548a9.414 9.414 0 003.378-7.236V16.255h25.828v34.623a1.113 1.113 0 002.227 0 3.9 3.9 0 013.896-3.897 3.9 3.9 0 013.896 3.896 3.9 3.9 0 01-3.896 3.897H37.963a1.113 1.113 0 000 2.227h12.914A6.13 6.13 0 0057 50.878V13.47a6.13 6.13 0 00-6.123-6.123zM9.463 54.774c-3.99 0-7.236-3.246-7.236-7.236a7.263 7.263 0 014.453-6.68v5.01a4.456 4.456 0 004.453 4.452h5.01a7.262 7.262 0 01-6.68 4.454zm7.213-6.68h-5.543a2.23 2.23 0 01-2.227-2.226v-5.543c.185-.014.371-.024.557-.024 3.99 0 7.236 3.246 7.236 7.237 0 .186-.01.371-.023.556zm.023-6.645a9.445 9.445 0 00-7.236-3.374 9.414 9.414 0 00-7.236 3.378V9.463c0-3.99 3.246-7.236 7.236-7.236 3.99 0 7.236 3.246 7.236 7.236V41.45zm38.074 4.709a6.095 6.095 0 00-3.896-1.404 6.095 6.095 0 00-3.897 1.404V13.47a3.9 3.9 0 013.897-3.896 3.9 3.9 0 013.896 3.896v32.687z" fill="#98B61D"/></svg>