<svg width="52" height="57" viewBox="0 0 52 57" fill="none" xmlns="http://www.w3.org/2000/svg"><path d="M26 5.655a1.11 1.11 0 01-1.105-1.114V1.114A1.11 1.11 0 0126 0c.61 0 1.105.498 1.105 1.113V4.54A1.11 1.11 0 0126 5.655zM11.626 11.654c-.283 0-.565-.108-.781-.326L8.439 8.905a1.12 1.12 0 010-1.575 1.1 1.1 0 011.563 0l2.406 2.424a1.12 1.12 0 010 1.574 1.097 1.097 0 01-.782.326zM40.374 11.653c-.283 0-.566-.109-.782-.326a1.12 1.12 0 010-1.574l2.406-2.424a1.1 1.1 0 011.563 0 1.12 1.12 0 010 1.574l-2.406 2.424a1.097 1.097 0 01-.781.326zM4.798 41.689c-.283 0-.565-.109-.781-.326a1.12 1.12 0 010-1.575l2.405-2.423a1.1 1.1 0 011.563 0 1.12 1.12 0 010 1.574L5.58 41.363a1.098 1.098 0 01-.78.326zM47.202 41.689c-.283 0-.566-.109-.781-.326l-2.406-2.424a1.12 1.12 0 010-1.575 1.1 1.1 0 011.563 0l2.405 2.424a1.12 1.12 0 010 1.575 1.098 1.098 0 01-.781.326zM50.895 26.135h-3.402a1.11 1.11 0 01-1.105-1.113 1.11 1.11 0 011.105-1.114h3.402c.61 0 1.105.499 1.105 1.114a1.11 1.11 0 01-1.105 1.113zM4.507 26.135H1.105A1.11 1.11 0 010 25.022a1.11 1.11 0 011.105-1.114h3.402c.61 0 1.105.499 1.105 1.114a1.11 1.11 0 01-1.105 1.113zM42.072 35.465c-1.082.002-1.515-1.436-.613-2.038a1.1 1.1 0 011.226 0c.904.602.468 2.04-.613 2.038zM26 36.481c-2.073 0-3.76-1.7-3.76-3.788 0-2.089 1.687-3.788 3.76-3.788 2.073 0 3.76 1.7 3.76 3.788 0 2.089-1.687 3.788-3.76 3.788zm0-5.35c-.855 0-1.55.7-1.55 1.562 0 .861.695 1.562 1.55 1.562.855 0 1.55-.7 1.55-1.562 0-.861-.695-1.562-1.55-1.562z" fill="#98B61D"/><path d="M39.558 12.839c-3.532-3.608-8.245-5.637-13.27-5.712-5.075-.072-9.888 1.859-13.55 5.447-3.66 3.585-5.71 8.372-5.777 13.479-.044 3.39.801 6.74 2.444 9.685a19.29 19.29 0 006.606 6.955 5.847 5.847 0 012.762 4.991v4.31a1.11 1.11 0 001.105 1.112h1.601v2.781a1.11 1.11 0 001.105 1.114h6.832a1.11 1.11 0 001.105-1.114v-2.78h1.601a1.11 1.11 0 001.105-1.114v-4.309a5.833 5.833 0 012.752-4.985 19.123 19.123 0 002.875-2.199 1.12 1.12 0 00.065-1.573 1.1 1.1 0 00-1.561-.065 16.9 16.9 0 01-2.542 1.944 8.035 8.035 0 00-2.705 2.784l-.448-2.456h.059a1.11 1.11 0 001.105-1.114c0-.528-.366-.97-.856-1.084l1.624-4a4.436 4.436 0 00-.063-4.091l-5.776-10.713a1.104 1.104 0 00-.97-.582h-1.572c-.405 0-.777.223-.97.582l-5.776 10.713a4.436 4.436 0 00-.064 4.09l1.625 4c-.49.114-.856.557-.856 1.085a1.11 1.11 0 001.105 1.114h.059l-.448 2.459a8.073 8.073 0 00-2.714-2.793c-5.014-3.13-8.081-8.77-8.004-14.718.058-4.512 1.872-8.742 5.107-11.912 3.178-3.113 7.332-4.819 11.723-4.819l.254.002c9.14.137 16.576 7.743 16.576 16.955 0 .795-.055 1.594-.164 2.376a1.112 1.112 0 00.942 1.257 1.106 1.106 0 001.247-.949 19.6 19.6 0 00.185-2.684c0-5.073-1.948-9.857-5.483-13.469zM28.31 54.774h-4.622v-1.668h4.622v1.668zm2.706-3.894H20.983v-2.083h10.034v2.083zM20.41 31.907l5.463-10.13h.256l5.463 10.13c.344.64.351 1.406.019 2.05-.016.03-.03.061-.042.092l-1.973 4.858h-7.19l-1.973-4.858a1.056 1.056 0 00-.042-.091 2.198 2.198 0 01.02-2.05zm9.007 9.227l.991 5.437h-8.814l.99-5.437h6.833z" fill="#98B61D"/></svg>