<svg width="45" height="40" fill="none" xmlns="http://www.w3.org/2000/svg"><path d="M39.548 0H10.96c-2.48 0-4.5 2.004-4.5 4.46l-.183 25.226H.697c-.395 0-.697.35-.697.747v3.471c0 3.25 2.595 5.909 5.728 6.054V40h24.074v-.047c.179.007.287.047.41.047h.017c3.341-.02 6.034-2.748 6.017-6.096V11.839h7.267c.395 0 .698-.36.698-.755v-6.37A4.7 4.7 0 0039.547 0zM6.036 38.565c-2.547 0-4.604-2.11-4.604-4.661V31.12h22.732v2.77a6.08 6.08 0 001.769 4.31c.12.122.247.185.376.364H6.036zm28.777-4.662c0 2.553-2.037 4.662-4.585 4.662h-.014a4.657 4.657 0 01-4.618-4.673v-3.46a.742.742 0 00-.716-.746H7.708l.185-25.222c0-1.669 1.376-3.029 3.067-3.029h25.208c-.816.897-1.355 2.032-1.355 3.298v29.17zm7.966-23.5h-6.534v-5.67c0-1.796 1.491-3.297 3.282-3.297h.02a3.267 3.267 0 013.232 3.286v5.683z" fill="#5C4F77"/><path d="M16.812 17.66l3.691 2.53c.241.166.56.166.8 0l3.68-2.529c1.28-.874 2.223-2.701 2.223-4.25V8.292a.702.702 0 00-.381-.644l-5.62-2.77a.702.702 0 00-.626 0l-5.61 2.762a.7.7 0 00-.381.644v5.125c0 1.55.946 3.377 2.224 4.25zm-.792-8.927l4.877-2.412 4.878 2.419v4.67c0 1.081-.707 2.456-1.6 3.065l-3.286 2.253-3.275-2.253c-.891-.61-1.594-1.984-1.594-3.065V8.733z" fill="#5C4F77"/><path d="M19.686 14.493a.714.714 0 00.507.216h.002a.719.719 0 00.506-.213l2.848-2.855a.719.719 0 000-1.015.715.715 0 00-1.012 0l-2.34 2.343-.935-.946a.715.715 0 00-1.013-.004.72.72 0 00-.005 1.015l1.442 1.46zm10.116 7.749H12.619a.717.717 0 000 1.435h17.183a.717.717 0 000-1.435zm0 3.318H12.619a.717.717 0 000 1.436h17.183a.717.717 0 000-1.435z" fill="#5C4F77"/></svg>