<svg width="34" height="40" fill="none" xmlns="http://www.w3.org/2000/svg"><path d="M33.383 6.907C27.898 5.399 22.38 3.05 17.427.117a.836.836 0 00-.853 0C11.478 3.135 6.258 5.357.617 6.907A.84.84 0 000 7.718v8.598c0 8.853 4.07 14.713 7.486 18.07C11.163 38.002 15.446 40 17 40c1.555 0 5.838-2 9.514-5.614C29.93 31.03 34 25.17 34 16.316V7.718a.84.84 0 00-.617-.811zm-1.06 9.409c0 8.269-3.797 13.737-6.983 16.868-3.615 3.555-7.48 5.133-8.34 5.133-.859 0-4.725-1.578-8.34-5.133-3.186-3.131-6.983-8.6-6.983-16.868V8.357A65.933 65.933 0 0017 1.817a68.02 68.02 0 0015.323 6.54v7.959z" fill="#5C4F77"/><path d="M11.284 18.282a2.704 2.704 0 00-1.929-.8c-.728 0-1.413.284-1.928.8a2.746 2.746 0 000 3.87l4.952 4.968c.515.517 1.2.801 1.928.801.729 0 1.414-.284 1.929-.8l10.338-10.373a2.746 2.746 0 000-3.87 2.704 2.704 0 00-1.929-.8c-.728 0-1.413.284-1.928.8l-8.41 8.438-3.023-3.034zm12.619-4.213c.198-.199.462-.308.742-.308.28 0 .544.11.743.308.409.41.409 1.079 0 1.49L15.05 25.93a1.041 1.041 0 01-.743.308c-.28 0-.544-.109-.742-.308l-4.952-4.968a1.057 1.057 0 010-1.49c.198-.198.462-.308.742-.308.281 0 .545.11.743.308l3.616 3.629a.838.838 0 001.186 0l9.003-9.032z" fill="#5C4F77"/></svg>