<svg width="512" height="512" fill="none" xmlns="http://www.w3.org/2000/svg"><path d="M512 256C512 114.833 397.167 0 256 0S0 114.833 0 256s114.853 256 256 256 256-114.833 256-256zm-472.341 0c0-119.275 97.046-216.341 216.341-216.341S472.341 136.725 472.341 256c0 119.295-97.046 216.341-216.341 216.341S39.659 375.275 39.659 256z" fill="#B1A1D7"/><path d="M228.635 369.227l99.148-99.148c7.694-7.734 7.694-20.226 0-27.96l-99.148-99.148c-7.416-6.365-18.382-6.365-25.798 0-8.309 7.119-9.28 19.651-2.161 27.96L285.744 256l-85.069 85.267c-7.694 7.734-7.694 20.226 0 27.96 7.734 7.694 20.227 7.694 27.96 0z" fill="#B1A1D7"/></svg>