<svg width="44" height="39" fill="none" xmlns="http://www.w3.org/2000/svg"><path d="M21.9 0c.3 0 .6.1.8.4L32.5 13H42c.5 0 1 .2 1.4.6.4.4.6.9.6 1.4v4c0 .5-.2 1-.6 1.4-.4.4-.9.6-1.4.6h-.2l-5.6 15.9c-.3 1.3-1.6 2.1-2.9 2.1h-23c-1.4 0-2.4-.9-2.8-2L2.1 21.1H2c-.5 0-1-.2-1.4-.6-.4-.4-.6-1-.6-1.5v-4c0-.5.2-1 .6-1.4.4-.4.9-.6 1.4-.6h9.5L21.1.4c.2-.3.5-.4.8-.4zM14 13h16L22 2.6 14 13zM2 15v4h.9c.4 0 .8.3.9.7l5.6 16.6c.2.5.6.7 1 .7h23c.5 0 .9-.3.9-.6v-.1l5.8-16.6c.1-.4.5-.7.9-.7h.9v-4H2z" fill="#151618"/></svg>