<svg width="44" height="49" fill="none" xmlns="http://www.w3.org/2000/svg"><path d="M3.853 12.9c.1-.5.502-.9 1.004-.9h34.125c.502 0 .903.4 1.003.9L44 47.9c0 .3-.1.6-.2.8-.201.2-.503.3-.703.3H.943c-.301 0-.603-.1-.703-.3-.2-.2-.301-.5-.2-.8l3.813-35zM5.76 14L1.946 47h39.946l-3.814-33H5.76z" fill="#151618"/><path d="M11.883 10c0-5.6 4.416-10 10.036-10 5.62 0 10.037 4.4 10.037 10v8c0 .6-.401 1-1.004 1-.602 0-1.003-.4-1.003-1v-8c0-4.4-3.614-8-8.03-8-4.416 0-8.029 3.6-8.029 8v8c0 .6-.402 1-1.004 1s-1.003-.4-1.003-1v-8z" fill="#151618"/></svg>