<svg width="45" height="46" fill="none" xmlns="http://www.w3.org/2000/svg"><path d="M41.044 4.54h-3.462V3.328C37.582 1.513 36.1 0 34.418 0c-1.682 0-3.264 1.513-3.264 3.329V4.64h-5.44V3.33c0-1.817-1.483-3.33-3.164-3.33-1.68 0-3.263 1.513-3.263 3.329V4.64h-5.44V3.33C13.846 1.513 12.363 0 10.681 0 9 0 7.418 1.513 7.418 3.329V4.64H3.956C1.78 4.64 0 6.456 0 8.675V38.94c0 2.219 1.78 4.035 3.956 4.035h24.132C29.967 44.89 32.44 46 35.11 46c5.242 0 9.593-4.136 9.89-9.483V8.575c0-2.22-1.78-4.036-3.956-4.036zM1.978 8.574c0-1.11.89-2.018 1.978-2.018h3.462v1.311c0 1.715 1.483 3.229 3.263 3.229 1.78 0 3.165-1.514 3.165-3.229v-1.31h5.44v1.311c0 1.816 1.483 3.33 3.263 3.33 1.78 0 3.165-1.615 3.165-3.33V6.557h5.44v1.311c0 1.816 1.483 3.33 3.264 3.33 1.78 0 3.164-1.615 3.164-3.33V6.557h3.462c1.088 0 1.978.908 1.978 2.018v5.043H1.978V8.575zm33.626-.707c0 .606-.593 1.211-1.186 1.211-.594 0-1.286-.605-1.286-1.311V3.329c0-.706.593-1.311 1.286-1.311.692 0 1.186.605 1.186 1.311v4.54zm-11.868 0c0 .606-.593 1.211-1.187 1.211-.593 0-1.285-.605-1.285-1.311V3.329c0-.706.593-1.311 1.285-1.311.693 0 1.187.605 1.187 1.311v4.54zm-11.868 0c0 .606-.593 1.211-1.187 1.211-.593 0-1.285-.605-1.285-1.21v-4.54c0-.706.593-1.311 1.285-1.311.693 0 1.187.605 1.187 1.311v4.54zM35.11 43.882c-4.352 0-7.912-3.632-7.912-8.07 0-4.44 3.56-8.07 7.912-8.07s7.912 3.63 7.912 8.07c0 4.438-3.56 8.07-7.912 8.07zm-9.89-8.07c0 1.815.494 3.53 1.384 5.043H3.956c-1.088 0-1.978-.908-1.978-2.017V15.636h41.044v14.123c-1.88-2.522-4.846-4.035-7.912-4.035-5.44 0-9.89 4.54-9.89 10.087z" fill="#151618"/><path d="M40.55 32.483a.943.943 0 00-1.385 0l-5.539 5.649-2.472-2.522c-.198-.202-.396-.303-.692-.303-.297 0-.495.1-.693.303a.989.989 0 000 1.412l3.165 3.228c.198.202.396.303.692.303.297 0 .495-.101.693-.303l6.33-6.456a.925.925 0 00.296-.706c-.099-.202-.198-.404-.395-.605z" fill="#151618"/></svg>