<svg width="25" height="25" viewBox="0 0 46 46" fill="none" xmlns="http://www.w3.org/2000/svg"><path d="M23 0C10.29 0 0 10.29 0 23s10.29 23 23 23 23-10.29 23-23C45.9 10.29 35.61 0 23 0zm0 43.882C11.4 43.882 2.018 34.5 2.018 23 2.018 11.5 11.399 2.018 23 2.018c11.6 0 20.983 9.381 20.983 20.982C43.882 34.5 34.5 43.882 23 43.882z" fill="#E1752F"/><path d="M33.996 14.526L19.267 29.254l-7.364-7.364a1.09 1.09 0 00-.706-.302c-.302 0-.504.1-.706.302a.975.975 0 000 1.412l8.07 8.07c.202.203.404.303.706.303.202 0 .505-.1.707-.302l15.333-15.334a.975.975 0 000-1.412c-.303-.403-.908-.403-1.311-.1z" fill="#E1752F"/></svg>