<svg width="33" height="33" viewBox="0 0 33 33" fill="none" xmlns="http://www.w3.org/2000/svg"><path d="M1.811 32.698L16.5 18.01 31.189 32.7a1.094 1.094 0 001.51 0c.2-.202.301-.504.301-.705 0-.201-.1-.503-.302-.704L18.01 16.6 32.7 1.913c.2-.202.301-.503.301-.705 0-.2-.1-.503-.302-.704a1.094 1.094 0 00-1.509 0L16.5 15.193 1.811.301a1.094 1.094 0 00-1.51 0A1.087 1.087 0 000 1.006c0 .201.1.503.302.704L14.99 16.4.3 31.188a1.087 1.087 0 00-.301.704c0 .201.1.503.302.705a1.013 1.013 0 001.509.1z" fill="#151618"/></svg>