<svg width="46" height="40" fill="none" xmlns="http://www.w3.org/2000/svg"><path d="M0 12.9C0 5.8 5.8 0 13 0c4 0 7.6 1.8 10 4.7C25.4 1.8 29 0 33 0c7.2 0 13 5.8 13 12.9 0 7.4-4.3 12.8-9.1 17-2.4 2.1-5 3.9-7.4 5.5-.4.3-.8.5-1.1.8-1.9 1.3-3.5 2.4-4.8 3.4l-.6.4-.6-.5c-1.2-1-2.9-2.1-4.8-3.4-.4-.2-.7-.5-1.1-.8-2.3-1.6-5-3.4-7.4-5.5C4.3 25.7 0 20.3 0 12.9zM13 2C7 2 2 6.9 2 12.9c0 6.5 3.7 11.5 8.4 15.5 2.3 2 4.8 3.7 7.2 5.3.4.2.7.5 1.1.7 1.6 1.1 3.1 2.1 4.3 3 1.2-.9 2.7-1.9 4.3-3 .4-.2.7-.5 1.1-.7 2.3-1.6 4.9-3.3 7.2-5.3 4.7-4 8.4-9 8.4-15.5C44 6.9 39 2 33 2c-3.9 0-7.2 1.9-9.2 4.9L23 8.2l-.8-1.3c-2-3-5.3-4.9-9.2-4.9z" fill="#151618"/></svg>