<svg width="34" height="45" fill="none" xmlns="http://www.w3.org/2000/svg"><path d="M30.189 18.717H7.622V11.25c0-5.077 4.213-9.259 9.328-9.259 5.115 0 9.327 4.182 9.327 9.259v.896c0 .498.401.996 1.003.996.602 0 1.003-.399 1.003-.996v-.896C28.283 5.077 23.168 0 16.95 0S5.617 5.077 5.617 11.25v7.467H3.81C1.705 18.717 0 20.409 0 22.5v18.717C0 43.307 1.705 45 3.811 45H30.19c2.105 0 3.81-1.693 3.81-3.783V22.5c0-2.09-1.705-3.783-3.811-3.783zm1.805 22.5c0 .995-.802 1.792-1.805 1.792H3.81a1.791 1.791 0 01-1.805-1.792V22.5a1.79 1.79 0 011.805-1.792h26.38a1.79 1.79 0 011.805 1.792v18.717z" fill="#151618"/></svg>