<svg width="34" height="44" fill="none" xmlns="http://www.w3.org/2000/svg"><path d="M19.965 25.824c4.448 0 8.006-1.192 10.378-3.377C32.813 20.262 34 17.084 34 13.01c0-4.072-1.285-7.25-3.756-9.535C27.774 1.192 24.215 0 19.767 0H7.413C6.623 0 5.93.695 5.93 1.49v22.149H.988c-.593 0-.988.496-.988.993v.1c0 .595.494.993.988.993H5.93v4.27H.988c-.593 0-.988.497-.988.994 0 .596.494.993.988.993H5.93v11.025c0 .596.494.993.989.993.593 0 .988-.497.988-.993V31.982h10.872c.593 0 .988-.497.988-.993a.993.993 0 00-.988-.994H7.907v-4.171h12.058zm-11.96-2.185V2.086h11.762c3.855 0 6.92.993 8.995 2.88 2.174 1.887 3.162 4.569 3.162 8.045 0 3.278-1.087 5.96-3.162 7.748-2.076 1.887-5.14 2.78-8.995 2.78H8.006v.1z" fill="#151618"/></svg>