<svg width="34" height="25" viewBox="0 0 34 25" fill="none" xmlns="http://www.w3.org/2000/svg">
<path d="M33.7093 11.7409L23.5099 0.377272C23.2923 0.136363 22.9886 0 22.6667 0H15.8671C15.4206 0 15.0149 0.263636 14.8313 0.672727C14.6499 1.08409 14.7247 1.56364 15.0239 1.89545L24.5411 12.5L15.0239 23.1023C14.7247 23.4364 14.6477 23.9159 14.8313 24.325C15.0149 24.7364 15.4206 25 15.8671 25H22.6667C22.9886 25 23.2923 24.8614 23.5099 24.625L33.7093 13.2614C34.0969 12.8295 34.0969 12.1705 33.7093 11.7409Z" fill="white"/>
<path d="M18.9768 11.7409L8.77734 0.377272C8.55975 0.136363 8.25603 0 7.93418 0H1.13455C0.688037 0 0.282326 0.263636 0.0987358 0.672727C-0.0825877 1.08409 -0.00779177 1.56364 0.291392 1.89545L9.80861 12.5L0.291392 23.1023C-0.00779177 23.4364 -0.0848543 23.9159 0.0987358 24.325C0.282326 24.7364 0.688037 25 1.13455 25H7.93418C8.25603 25 8.55975 24.8614 8.77734 24.625L18.9768 13.2614C19.3644 12.8295 19.3644 12.1705 18.9768 11.7409Z" fill="white"/>
</svg>
