<svg width="34" height="25" fill="none" xmlns="http://www.w3.org/2000/svg"><path d="M33.71 11.74L23.51.378A1.133 1.133 0 0022.667 0h-6.8a1.137 1.137 0 00-.843 1.895L24.54 12.5l-9.517 10.602A1.137 1.137 0 0015.867 25h6.8c.322 0 .625-.139.843-.375l10.2-11.364a1.14 1.14 0 000-1.52z" fill="#fff"/><path d="M18.977 11.74L8.777.378A1.133 1.133 0 007.934 0h-6.8a1.137 1.137 0 00-.843 1.895L9.81 12.5.29 23.102A1.137 1.137 0 001.135 25h6.8c.321 0 .625-.139.842-.375l10.2-11.364a1.14 1.14 0 000-1.52z" fill="#fff"/></svg>