<svg width="44" height="41" fill="none" xmlns="http://www.w3.org/2000/svg"><path d="M23.12.73l5.19 13.162h.1l14.471.792c1.098.099 1.498 1.385.699 2.078l-11.278 8.906v.099l3.793 13.656c.299 1.089-.899 1.88-1.797 1.287l-12.276-7.62h-.1L9.746 40.809c-.898.594-2.096-.297-1.796-1.287l3.792-13.656v-.099L.464 16.861c-.898-.693-.4-2.079.699-2.079l14.471-.791h.1L20.924.829c.4-1.088 1.797-1.088 2.196-.099zm-1.198 2.771l-4.89 12.37h-.1l-13.574.792c-.1 0-.1.099 0 .099l10.58 8.411v.1l-3.493 12.765c0 .099 0 .099.1.099l11.377-7.224h.1L33.4 38.137c.1 0 .1 0 .1-.099l-3.494-12.865v-.099l10.58-8.411v-.1l-13.574-.692h-.1l-4.89-12.37c0-.099 0-.099-.1 0z" fill="#151618"/></svg>