<?xml version="1.0" encoding="utf-8"?>
<!-- Generator: Adobe Illustrator 21.1.0, SVG Export Plug-In . SVG Version: 6.00 Build 0)  -->
<svg version="1.1" id="Layer_1" xmlns="http://www.w3.org/2000/svg" xmlns:xlink="http://www.w3.org/1999/xlink" x="0px" y="0px"
	 viewBox="0 0 12 20" style="enable-background:new 0 0 12 20;" xml:space="preserve">
<style type="text/css">
	.st0{fill:#FFFFFF;}
</style>
<path class="st0" d="M11.7,9.2L2.6,0.3C2.4,0.1,2.1,0,1.8,0C1.5,0,1.2,0.1,1,0.3L0.3,1c-0.4,0.4-0.4,1.1,0,1.5L8,10l-7.6,7.5
	C0.1,17.7,0,18,0,18.3c0,0.3,0.1,0.6,0.3,0.8L1,19.7C1.2,19.9,1.5,20,1.8,20c0.3,0,0.6-0.1,0.8-0.3l9.1-8.9c0.2-0.2,0.3-0.5,0.3-0.8
	C12,9.7,11.9,9.4,11.7,9.2z"/>
</svg>
