<svg width="70" height="31" viewBox="0 0 70 31" fill="none" xmlns="http://www.w3.org/2000/svg"><path fill="#758166" d="M48 18h22v13H48z"/><path d="M48 27.866h1.737v-1.924h.86c1.558 0 2.696-.836 2.696-2.423 0-1.51-1.021-2.384-2.606-2.384H48v6.73zm1.737-3.385v-1.779h.815c.627 0 1.003.308 1.003.885 0 .548-.376.894-.994.894h-.824zM54.026 27.866h1.737v-2.039h.761l1.263 2.038h2.006l-1.495-2.346c.779-.355 1.29-1.038 1.29-2.067 0-.683-.189-1.202-.556-1.596-.421-.452-1.084-.721-2.042-.721h-2.964v6.73zm1.737-3.5V22.75H56.9c.583 0 .94.27.94.798 0 .51-.34.818-.93.818h-1.147zM63.615 28C65.549 28 67 26.433 67 24.5c0-1.952-1.433-3.5-3.367-3.5-1.935 0-3.385 1.567-3.385 3.5 0 1.952 1.432 3.5 3.367 3.5zm.018-1.683c-.95 0-1.603-.846-1.603-1.817 0-.99.636-1.817 1.585-1.817.958 0 1.612.846 1.612 1.817 0 .99-.636 1.817-1.594 1.817z" fill="#333D0B"/><path d="M0 30.767h3.452V27.18H5.16c3.096 0 5.355-1.56 5.355-4.519 0-2.815-2.028-4.447-5.177-4.447H0v12.552zm3.452-6.312v-3.317H5.07c1.245 0 1.993.574 1.993 1.65 0 1.022-.748 1.667-1.975 1.667H3.452zM11.972 30.767h9.483v-3.048h-6.031v-9.504h-3.452v12.552zM28.193 31c3.54 0 5.836-1.775 5.836-5.828v-6.957h-3.505v7.065c0 1.757-.908 2.582-2.296 2.582-1.387 0-2.295-.86-2.295-2.672v-6.975h-3.505v7.047c0 3.927 2.224 5.738 5.765 5.738zM40.965 30.982c3.024 0 5.035-1.524 5.035-4.088 0-2.385-1.78-3.317-4.644-3.945-1.726-.395-2.153-.646-2.153-1.22 0-.483.41-.842 1.246-.842 1.103 0 2.348.43 3.487 1.237l1.726-2.456C44.31 18.574 42.655 18 40.538 18c-2.99 0-4.822 1.686-4.822 4.017 0 2.617 2.046 3.37 4.697 3.98 1.69.395 2.1.682 2.1 1.202 0 .573-.498.896-1.424.896-1.441 0-2.811-.52-4.039-1.506l-1.921 2.313c1.53 1.38 3.63 2.08 5.836 2.08zM7.018 14c3.014 0 4.744-1.289 6.027-3.039l-2.838-2c-.817.981-1.653 1.635-3.072 1.635C5.23 10.596 3.888 9.02 3.888 7c0-2 1.342-3.596 3.247-3.596 1.302 0 2.216.596 2.994 1.558l2.76-2.116C11.684 1.192 9.954 0 7.175 0 3.052 0 0 3.077 0 7c0 4.058 3.13 7 7.018 7zM30.122 13.73h10.362v-3.269h-6.59V.27h-3.772v13.462zM48.167 14c4.199 0 7.348-3.135 7.348-7 0-3.904-3.11-7-7.31-7-4.199 0-7.348 3.135-7.348 7 0 3.904 3.11 7 7.31 7zm.038-3.365c-2.06 0-3.48-1.693-3.48-3.635 0-1.98 1.38-3.635 3.442-3.635 2.08 0 3.499 1.693 3.499 3.635 0 1.98-1.38 3.635-3.46 3.635zM57.48 13.73h3.772V9.655h1.652l2.741 4.077H70l-3.247-4.693c1.692-.711 2.8-2.076 2.8-4.134 0-1.366-.408-2.404-1.206-3.192C67.434.808 65.995.269 63.915.269H57.48v13.462zm3.772-7V3.5h2.468c1.264 0 2.042.538 2.042 1.596 0 1.02-.739 1.635-2.022 1.635h-2.489zM21.367 14c4.2 0 7.349-3.135 7.349-7 0-3.904-3.11-7-7.31-7-4.2 0-7.349 3.135-7.349 7 0 3.904 3.11 7 7.31 7zm.039-3.365c-2.061 0-3.48-1.693-3.48-3.635 0-1.98 1.38-3.635 3.44-3.635 2.081 0 3.5 1.693 3.5 3.635 0 1.98-1.38 3.635-3.46 3.635z" fill="#758166"/></svg>