<svg width="134" height="13" viewBox="0 0 134 13" fill="none" xmlns="http://www.w3.org/2000/svg"><path d="M6.285 13c2.699 0 4.248-1.196 5.397-2.821L9.14 8.32c-.73.911-1.48 1.518-2.75 1.518-1.707 0-2.908-1.464-2.908-3.339 0-1.857 1.201-3.34 2.908-3.34 1.166 0 1.984.554 2.68 1.447l2.473-1.964C10.463 1.107 8.914 0 6.424 0 2.734 0 0 2.857 0 6.5 0 10.268 2.803 13 6.285 13zM26.975 12.75h9.28V9.714h-5.902V.25h-3.378v12.5zM43.135 13c3.76 0 6.58-2.91 6.58-6.5 0-3.625-2.785-6.5-6.545-6.5-3.761 0-6.581 2.91-6.581 6.5 0 3.625 2.785 6.5 6.546 6.5zm.035-3.125c-1.846 0-3.117-1.571-3.117-3.375 0-1.84 1.236-3.375 3.082-3.375 1.863 0 3.134 1.571 3.134 3.375 0 1.84-1.236 3.375-3.1 3.375zM51.475 12.75h3.378V8.964h1.48l2.455 3.786h3.9L59.78 8.393c1.514-.66 2.507-1.929 2.507-3.84 0-1.267-.366-2.232-1.08-2.964C60.39.75 59.102.25 57.239.25h-5.763v12.5zm3.378-6.5v-3h2.21c1.133 0 1.829.5 1.829 1.482 0 .947-.662 1.518-1.81 1.518h-2.23zM63.989 12.75h3.377V9.179h1.672c3.03 0 5.24-1.554 5.24-4.5 0-2.804-1.985-4.429-5.066-4.429h-5.223v12.5zm3.377-6.286V3.161h1.585c1.218 0 1.95.571 1.95 1.643 0 1.017-.732 1.66-1.933 1.66h-1.602zM75.703 12.75h9.28V9.714H79.08V.25h-3.378v12.5zM91.576 12.982c3.464 0 5.71-1.768 5.71-5.803V.25h-3.43v7.036c0 1.75-.887 2.571-2.245 2.571-1.359 0-2.246-.857-2.246-2.66V.25h-3.43v7.018c0 3.91 2.176 5.714 5.64 5.714zM104.073 12.964c2.96 0 4.927-1.518 4.927-4.071 0-2.375-1.741-3.304-4.544-3.929-1.689-.393-2.107-.643-2.107-1.214 0-.482.401-.84 1.219-.84 1.079 0 2.298.43 3.412 1.233l1.689-2.447c-1.323-1.089-2.942-1.66-5.014-1.66-2.925 0-4.718 1.678-4.718 4 0 2.607 2.002 3.357 4.596 3.964 1.654.393 2.055.679 2.055 1.196 0 .572-.488.893-1.393.893-1.41 0-2.751-.518-3.952-1.5l-1.88 2.304c1.497 1.375 3.551 2.071 5.71 2.071zM19.135 13c3.76 0 6.58-2.91 6.58-6.5 0-3.625-2.785-6.5-6.545-6.5-3.761 0-6.581 2.91-6.581 6.5 0 3.625 2.785 6.5 6.546 6.5zm.035-3.125c-1.846 0-3.117-1.571-3.117-3.375 0-1.84 1.236-3.375 3.082-3.375 1.863 0 3.134 1.571 3.134 3.375 0 1.84-1.236 3.375-3.1 3.375z" fill="#fff"/><path fill="#98B61D" d="M112 0h22v13h-22z"/><path d="M112 9.865h1.737V7.942h.86c1.558 0 2.696-.836 2.696-2.423 0-1.51-1.021-2.384-2.606-2.384H112v6.73zm1.737-3.384V4.7h.815c.627 0 1.003.309 1.003.886 0 .548-.376.894-.994.894h-.824zM118.026 9.865h1.737V7.827h.761l1.263 2.038h2.006l-1.496-2.346c.78-.356 1.29-1.038 1.29-2.067 0-.683-.188-1.202-.555-1.596-.421-.452-1.084-.721-2.042-.721h-2.964v6.73zm1.737-3.5V4.75h1.137c.583 0 .941.27.941.798 0 .51-.341.817-.932.817h-1.146zM127.615 10C129.549 10 131 8.433 131 6.5c0-1.952-1.433-3.5-3.367-3.5-1.935 0-3.385 1.567-3.385 3.5 0 1.952 1.432 3.5 3.367 3.5zm.018-1.683c-.95 0-1.603-.846-1.603-1.817 0-.99.636-1.817 1.585-1.817.958 0 1.612.846 1.612 1.817 0 .99-.636 1.817-1.594 1.817z" fill="#171B05"/></svg>