<svg height="512" viewBox="0 0 61 60" width="512" xmlns="http://www.w3.org/2000/svg"><g fill="#000" fill-rule="nonzero"><path d="M55.179 27.118C45.855 30.732 42.838 30.5 36 27.744v-.936a2 2 0 00-1.234-1.848l-8-3.312a1.981 1.981 0 00-2.666 1.246c-11.855-4.251-19.116-2.65-21.737-1.727a3.538 3.538 0 00-2.157 4.522 3.492 3.492 0 003.4 2.352L8.6 43.655a11.947 11.947 0 007.4 7.62v2.909A2.993 2.993 0 0017 60h4a3 3 0 00.588-5.941L22.618 52h16.764l1.03 2.059A3 3 0 0041 60h4a2.993 2.993 0 001-5.816v-2.833a11.957 11.957 0 007.524-7.391L57.008 34c.245-.092.478-.175.728-.272a3.542 3.542 0 10-2.557-6.606zM26 39h8v2a1 1 0 01-1 1h-6a1 1 0 01-1-1zm8-12.192V37h-8V23.5zM2.093 25.026a1.539 1.539 0 01.939-1.973c2.458-.866 9.376-2.366 20.968 1.929v3.3c-11.576-4.551-18.182-2.93-19.945-2.314h-.019c-.014 0-.027 0-.041.005a.162.162 0 00-.018.01 1.527 1.527 0 01-1.884-.957zM22 57a1 1 0 01-1 1h-4a1 1 0 010-2h4a1 1 0 011 1zm23 1h-4a1 1 0 010-2h4a1 1 0 010 2zm6.637-14.7A9.978 9.978 0 0146 49.238V49a1 1 0 00-2 0v5h-1.382L39.9 48.553a1 1 0 10-1.79.894l.277.553H23.618l.277-.553a1 1 0 10-1.79-.894L19.382 54H18v-5a1 1 0 00-2 0v.143a9.968 9.968 0 01-5.5-6.1L5.566 27.607C11.251 26.2 18.572 28.246 24 30.43V41a3 3 0 003 3h6a3 3 0 003-3v-5.669a23.907 23.907 0 008.24 1.569 32.37 32.37 0 0010.345-2.035zm5.381-11.441C51.6 33.962 47.659 34.9 44.24 34.9A23 23 0 0136 33.2v-3.3c6.855 2.662 10.535 2.718 19.9-.915a1.542 1.542 0 011.116 2.876z"/><path d="M10.752 30.7a1 1 0 10-1.9.609l3.559 11.132a1 1 0 001.252.652 1 1 0 00.648-1.257zM39 18a3 3 0 100 6 3 3 0 000-6zm0 4a1 1 0 110-2 1 1 0 010 2zM49 6.5a4.5 4.5 0 10-9 0 4.5 4.5 0 009 0zm-7 0a2.5 2.5 0 115 0 2.5 2.5 0 01-5 0zM46.5 20a3.5 3.5 0 100-7 3.5 3.5 0 000 7zm0-5a1.5 1.5 0 110 3 1.5 1.5 0 010-3zM15.188 12.392A4.3 4.3 0 0017 8.988a4.273 4.273 0 00-1.837-3.4C14.42 4.927 14 4.514 14 3.667s.42-1.261 1.163-1.918a1.001 1.001 0 10-1.326-1.5A4.333 4.333 0 0012 3.667a4.338 4.338 0 001.837 3.416C14.6 7.758 15 8.15 15 8.988s-.395 1.238-1.163 1.93A4.334 4.334 0 0012 14.333c.04 1.364.72 2.63 1.837 3.416a1.001 1.001 0 001.326-1.5C14.42 15.594 14 15.181 14 14.333s.42-1.26 1.188-1.941zM21.188 12.392A4.3 4.3 0 0023 8.988a4.273 4.273 0 00-1.837-3.4C20.42 4.927 20 4.514 20 3.667s.42-1.261 1.163-1.918a1.001 1.001 0 10-1.326-1.5A4.333 4.333 0 0018 3.667a4.338 4.338 0 001.837 3.416C20.6 7.758 21 8.15 21 8.988s-.395 1.238-1.163 1.93A4.334 4.334 0 0018 14.333c.04 1.364.72 2.63 1.837 3.416a1.001 1.001 0 001.326-1.5C20.42 15.594 20 15.181 20 14.333s.42-1.26 1.188-1.941zM27.188 12.392A4.3 4.3 0 0029 8.988a4.273 4.273 0 00-1.837-3.4C26.42 4.927 26 4.514 26 3.667s.42-1.261 1.163-1.918a1.001 1.001 0 10-1.326-1.5A4.333 4.333 0 0024 3.667a4.338 4.338 0 001.837 3.416C26.6 7.758 27 8.15 27 8.988s-.395 1.238-1.163 1.93A4.334 4.334 0 0024 14.333c.04 1.364.72 2.63 1.837 3.416a1.001 1.001 0 001.326-1.5C26.42 15.594 26 15.181 26 14.333s.42-1.26 1.188-1.941z"/></g></svg>