<svg height="512" viewBox="0 0 512 512" width="512" xmlns="http://www.w3.org/2000/svg"><path d="M496 200h-32a8 8 0 00-8 8v8h-32v-12a20.02 20.02 0 00-20-20H204a20.02 20.02 0 00-20 20v12h-16v-20a28.031 28.031 0 00-28-28h-40a28.031 28.031 0 00-28 28v20H56V112a8 8 0 00-8-8H16a8 8 0 00-8 8v288a8 8 0 008 8h32a8 8 0 008-8v-32h128v8a24.032 24.032 0 0024 24h192a24.032 24.032 0 0024-24v-8h32v32a8 8 0 008 8h32a8 8 0 008-8V208a8 8 0 00-8-8zM40 392H24V120h16zm48-196a12.01 12.01 0 0112-12h40a12.01 12.01 0 0112 12v20H88zm96 156H56V232h128zm224 24a8.011 8.011 0 01-8 8H208a8.011 8.011 0 01-8-8v-16h208zm0-32H200V204a4 4 0 014-4h200a4 4 0 014 4zm48 8h-32V232h32zm32 40h-16V216h16z"/></svg>