<svg width="75" height="67" viewBox="0 0 75 67" fill="none" xmlns="http://www.w3.org/2000/svg"><path d="M67.091-.356H18.593c-4.209 0-7.633 3.392-7.633 7.548l-.312 42.705H1.183c-.67 0-1.183.593-1.183 1.264v5.877c0 5.502 4.403 10.001 9.717 10.248v.07h40.84v-.079c.303.013.487.08.696.08h.029c5.667-.034 10.236-4.653 10.206-10.32V19.685h12.329c.67 0 1.183-.608 1.183-1.278V7.624a7.966 7.966 0 00-7.909-7.98zM10.24 64.927c-4.32 0-7.81-3.57-7.81-7.89v-4.71h38.562v4.69a10.28 10.28 0 003 7.294c.206.207.42.313.64.616H10.24zm48.819-7.891c0 4.32-3.457 7.891-7.779 7.891h-.025a7.891 7.891 0 01-7.834-7.91v-5.856a1.258 1.258 0 00-1.215-1.264h-29.13l.313-42.696c0-2.825 2.335-5.128 5.204-5.128h42.764c-1.384 1.518-2.298 3.44-2.298 5.583v49.38zm13.512-39.78H61.488V7.653c0-3.04 2.529-5.58 5.567-5.58h.034a5.537 5.537 0 015.482 5.562v9.62z" fill="#98B61D"/><path d="M28.52 29.54l6.263 4.281c.408.282.948.282 1.357 0l6.243-4.28c2.169-1.48 3.77-4.573 3.77-7.196v-8.662a1.188 1.188 0 00-.647-1.09l-9.534-4.69a1.193 1.193 0 00-1.062 0l-9.517 4.676c-.408.208-.66.633-.646 1.09v8.676c0 2.623 1.605 5.716 3.774 7.195zm-1.344-15.112l8.274-4.083 8.275 4.094v7.906c0 1.83-1.2 4.157-2.712 5.188l-5.577 3.814-5.554-3.813c-1.513-1.033-2.706-3.36-2.706-5.189v-7.917z" fill="#98B61D"/><path d="M33.396 24.179c.227.23.536.362.86.364h.003c.323-.002.632-.13.859-.36l4.831-4.833a1.215 1.215 0 10-1.717-1.72L34.263 21.6l-1.586-1.602a1.215 1.215 0 10-1.727 1.71l2.446 2.472zM50.557 37.296h-29.15a1.215 1.215 0 000 2.43h29.15a1.215 1.215 0 000-2.43zM50.557 42.913h-29.15a1.215 1.215 0 000 2.43h29.15a1.215 1.215 0 000-2.43z" fill="#98B61D"/></svg>