<svg width="75" height="75" viewBox="0 0 75 75" fill="none" xmlns="http://www.w3.org/2000/svg"><path d="M60.865 65.323l-2.8-8.403a8.468 8.468 0 00-6.519-5.652l-8.084-1.471v-.627a12.174 12.174 0 003.606-3.202h2.442c2.001 0 3.63-1.628 3.63-3.63V27.824c0-8.671-7.056-15.726-15.727-15.726-8.67 0-15.725 7.055-15.725 15.726v8.468a4.847 4.847 0 003.857 4.738c.679 3.476 2.852 6.418 5.82 8.141v.627l-8.085 1.47a8.466 8.466 0 00-6.518 5.653l-.484 1.453-4.12-4.12a1.212 1.212 0 010-1.712l4.778-4.777-8.968-8.968-5.4 5.4a8.413 8.413 0 00-2.48 5.988 8.41 8.41 0 002.48 5.986l16.348 16.35A8.414 8.414 0 0024.904 75a8.376 8.376 0 005.95-2.445l5.892-5.398-1.838-1.834h25.957zM50.72 42.339a1.21 1.21 0 01-1.21 1.21h-1.017c.35-.8.617-1.643.789-2.52a4.796 4.796 0 001.438-.572v1.882zm-1.21-3.965v-4.166c.72.42 1.21 1.191 1.21 2.083 0 .891-.49 1.663-1.21 2.083zm-24.193 0a2.411 2.411 0 01-1.21-2.083c0-.892.49-1.664 1.21-2.083v4.166zm0-8.132v1.382a4.8 4.8 0 00-1.21.5v-4.301c0-7.337 5.97-13.307 13.306-13.307 7.337 0 13.307 5.97 13.307 13.307v4.301a4.757 4.757 0 00-1.21-.5v-1.382H48.3a13.31 13.31 0 01-9.47-3.923l-1.416-1.416-1.417 1.416a13.31 13.31 0 01-9.47 3.923h-1.21zm2.42 8.468v-6.094a15.684 15.684 0 009.677-4.3 15.677 15.677 0 009.677 4.3v6.094a9.605 9.605 0 01-1.309 4.839h-8.368v2.419h6.38a9.626 9.626 0 01-6.38 2.42c-5.336 0-9.678-4.342-9.678-9.678zm13.305 11.539v.057l-3.629 3.629-3.628-3.63v-.056a12.079 12.079 0 007.258 0zm-21.987 7.436a6.05 6.05 0 014.657-4.04l8.455-1.536 5.246 5.247 5.246-5.245 8.454 1.536a6.048 6.048 0 014.656 4.04l1.74 5.217H32.49l-4.712-4.712-5.235 4.736c-.456.458-1.254.458-1.71 0l-2.643-2.642.866-2.601zM7.966 42.217l5.548 5.547-1.314 1.314-5.547-5.547 1.313-1.314zM29.178 70.81a6.018 6.018 0 01-4.276 1.77 6.015 6.015 0 01-4.278-1.772L4.276 54.46a6.009 6.009 0 01-1.771-4.276 6.01 6.01 0 011.77-4.278l.666-.665 5.548 5.548-.044.043a3.635 3.635 0 000 5.133l8.675 8.675a3.61 3.61 0 002.566 1.063c.97 0 1.881-.378 2.523-1.021l.09-.081 5.573 5.573-.694.636zm2.48-2.274l-5.561-5.561 1.598-1.444 5.551 5.55-1.588 1.455zM71.284 0H54.35c-2 0-3.629 1.628-3.629 3.63v9.677c0 2 1.628 3.629 3.629 3.629h3.231l-1.25 7.295 11.673-7.295h3.281c2.001 0 3.63-1.629 3.63-3.63V3.63c0-2-1.629-3.629-3.63-3.629zm1.21 13.307c0 .666-.543 1.21-1.21 1.21h-3.976l-7.682 4.8.823-4.8h-6.1c-.666 0-1.21-.544-1.21-1.21V3.629c0-.666.543-1.21 1.21-1.21h16.935c.667 0 1.21.544 1.21 1.21v9.678z" fill="#98B61D"/><path d="M70.075 4.839H55.559v2.42h14.516v-2.42zM65.236 9.678H55.56v2.419h9.677v-2.42zM70.075 9.678h-2.42v2.419h2.42v-2.42zM37.413 3.63c-15.805 0-29.42 10.932-32.96 26.183L2.161 25.99.086 27.236l4.253 7.085 7.085-4.252-1.245-2.074L6.9 29.962C10.329 16.01 22.874 6.049 37.413 6.049c3.178 0 6.314.471 9.32 1.403l.716-2.31a33.85 33.85 0 00-10.035-1.513zM74.326 26.785l-7.085-4.252-4.251 7.086 2.074 1.245 2.117-3.529A31.32 31.32 0 0168.865 37.5a31.525 31.525 0 01-7.015 19.803l1.879 1.524A33.947 33.947 0 0071.284 37.5c0-3.7-.596-7.314-1.758-10.773l3.555 2.132 1.245-2.074z" fill="#98B61D"/></svg>