<svg width="70" height="75" viewBox="0 0 70 75" fill="none" xmlns="http://www.w3.org/2000/svg"><path d="M28.75 18h2.5v2.5h-2.5V18zM38.75 18h2.5v2.5h-2.5V18zM35 29.25c2.103 0 3.75-1.372 3.75-3.125h-2.5c0 .22-.474.625-1.25.625s-1.25-.404-1.25-.625h-2.5c0 1.753 1.647 3.125 3.75 3.125z" fill="#98B61D"/><path d="M66.888 54.37l-4.754-4.754-1.768 1.768 4.754 4.754a8.073 8.073 0 012.38 5.745v7.68A3.442 3.442 0 0164.062 73H61.25v-6.25h2.5v-2.5h-5v-22.5a1.25 1.25 0 00-1.25-1.25h-6.779l-7.13-4.537-1.034-4.138.438-.222a5.909 5.909 0 003.255-5.297V25.5h.625a4.38 4.38 0 004.375-4.375v-1.25a4.38 4.38 0 00-4.28-4.374 4.37 4.37 0 00.53-2.09V9.563A9.073 9.073 0 0038.437.5h-6.874A9.073 9.073 0 0022.5 9.563v3.848c0 .73.182 1.449.531 2.09a4.38 4.38 0 00-4.281 4.374v1.25a4.38 4.38 0 004.375 4.375h.625v.853a5.904 5.904 0 003.282 5.31l.401.201-1.025 4.1-7.13 4.536H12.5a1.25 1.25 0 00-1.25 1.25v4.482l-4.634 4.634 1.768 1.768 2.866-2.866V64.25h-5v2.5h2.5V73H5.937A3.441 3.441 0 012.5 69.563v-7.68a8.072 8.072 0 012.38-5.745l1.004-1.004-1.768-1.768-1.004 1.005A10.555 10.555 0 000 61.883v7.68A5.944 5.944 0 005.937 75.5h58.125A5.944 5.944 0 0070 69.563v-7.68a10.557 10.557 0 00-3.112-7.512zM31.25 43h7.5v8.75h-7.5V43zm9.268-2.5l2.157-2.156 3.39 2.156h-5.547zM25.99 15.064a1.848 1.848 0 01-.99-1.653v-.925l4.536-2.52a11.185 11.185 0 0110.928 0L45 12.485v.925a1.875 1.875 0 01-2.915 1.56l-2.925-1.95a7.48 7.48 0 00-8.32 0l-2.925 1.95a1.848 1.848 0 01-1.925.093zm22.76 4.811v1.25A1.877 1.877 0 0146.875 23h-.625v-5h.625a1.877 1.877 0 011.875 1.875zM31.562 3h6.875A6.57 6.57 0 0145 9.563v.062L41.678 7.78a13.669 13.669 0 00-13.355 0L25 9.625v-.062A6.57 6.57 0 0131.563 3zm-8.437 20a1.877 1.877 0 01-1.875-1.875v-1.25A1.877 1.877 0 0123.125 18h.625v5h-.625zm3.125 3.353v-8.61a4.365 4.365 0 003.052-.692l2.924-1.95a4.987 4.987 0 015.547 0l2.925 1.95c.897.6 1.984.846 3.052.691v8.564a3.421 3.421 0 01-1.885 3.067l-6.027 3.052a1.883 1.883 0 01-1.685.004l-6.003-3.001a3.419 3.419 0 01-1.9-3.075zm6.785 8.313a4.395 4.395 0 003.933-.01l3.302-1.672.846 3.384-4.134 4.132h-3.964l-4.134-4.133.84-3.357 3.31 1.656zm-5.71 3.678l2.157 2.156h-5.547l3.39-2.156zM13.75 43h15v10A1.25 1.25 0 0030 54.25h10A1.25 1.25 0 0041.25 53V43h15v21.25H55A10.016 10.016 0 0045.078 73H41.25v-6.25A1.25 1.25 0 0040 65.5H30a1.25 1.25 0 00-1.25 1.25V73h-3.828A10.016 10.016 0 0015 64.25h-1.25V43zm-2.5 30v-6.25H15A7.512 7.512 0 0122.396 73H11.25zm20 0v-5h7.5v5h-7.5zm27.5 0H47.604A7.512 7.512 0 0155 66.75h3.75V73z" fill="#98B61D"/><path d="M16.25 45.5h2.5V48h-2.5v-2.5zM21.25 45.5h5V48h-5v-2.5zM16.25 50.5h10V53h-10v-2.5zM45 54.25h4.375a4.38 4.38 0 004.375-4.375V46.75a1.25 1.25 0 00-1.25-1.25h-4.375a4.38 4.38 0 00-4.375 4.375V53A1.25 1.25 0 0045 54.25zm1.25-4.375A1.876 1.876 0 0148.125 48h3.125v1.875a1.877 1.877 0 01-1.875 1.875H46.25v-1.875z" fill="#98B61D"/></svg>