<svg width="70" height="64" viewBox="0 0 70 64" fill="none" xmlns="http://www.w3.org/2000/svg"><path d="M69.596 45.653l-3.338-3.31a1.367 1.367 0 10-1.925 1.942l3.337 3.31a1.363 1.363 0 001.933-.008 1.367 1.367 0 00-.007-1.934zM62.858 38.957a1.367 1.367 0 00-1.934 0l-.002.002a1.366 1.366 0 101.936 1.932c.534-.534.534-1.4 0-1.934z" fill="#98B61D"/><path d="M51.2 45.262l13.266-13.265a5.159 5.159 0 000-7.288 5.12 5.12 0 00-2.486-1.375c.313-.672.478-1.409.478-2.172a5.12 5.12 0 00-1.509-3.644 5.112 5.112 0 00-2.767-1.434 5.157 5.157 0 00-1.248-5.258 5.122 5.122 0 00-2.765-1.43c.17-.515.259-1.06.259-1.618a5.12 5.12 0 00-1.51-3.644 5.12 5.12 0 00-3.643-1.509c-.874 0-1.715.217-2.461.624l-.132-.142A9.125 9.125 0 0040.023.208H29.285c-.755 0-1.367.612-1.367 1.367V3.37c0 .717.121 1.416.353 2.073a5.145 5.145 0 00-1.977-.392 5.12 5.12 0 00-3.644 1.51 5.157 5.157 0 00-1.247 5.26 5.124 5.124 0 00-2.768 1.431 5.12 5.12 0 00-1.51 3.644c0 .557.09 1.1.259 1.615a5.114 5.114 0 00-2.765 1.433 5.162 5.162 0 00-1.03 5.813 5.119 5.119 0 00-2.486 1.378 5.16 5.16 0 000 7.287l2.728 2.728L.4 50.58a1.368 1.368 0 001.933 1.934l13.56-13.56a5.12 5.12 0 002.547.673 5.12 5.12 0 003.644-1.51 5.138 5.138 0 001.502-3.851 5.138 5.138 0 003.852-1.502 5.12 5.12 0 001.503-3.852 5.137 5.137 0 003.85-1.502 5.12 5.12 0 001.504-3.851 5.137 5.137 0 003.85-1.502 5.16 5.16 0 00.341-6.91l9.077-9.077a2.401 2.401 0 011.71-.709c.646 0 1.253.252 1.71.709.457.456.708 1.063.708 1.71 0 .645-.251 1.253-.708 1.71l-6.194 6.193a1.367 1.367 0 001.933 1.934l4.856-4.855a2.42 2.42 0 013.42 0 2.421 2.421 0 010 3.42l-4.856 4.855a1.367 1.367 0 001.934 1.934l3.517-3.517a2.402 2.402 0 011.71-.709c.646 0 1.253.252 1.71.709.457.457.708 1.064.708 1.71 0 .645-.251 1.253-.708 1.71l-3.518 3.517a1.368 1.368 0 001.934 1.934l1.682-1.682a2.421 2.421 0 013.418.002 2.42 2.42 0 010 3.42L49.265 43.328a18.525 18.525 0 01-12.466 5.43 1.367 1.367 0 00-.92.402l-12.253 12.3a1.367 1.367 0 101.937 1.93l9.013-9.047a12.711 12.711 0 007.72 1.986l7.054 7.055a1.364 1.364 0 001.934 0c.534-.534.534-1.4 0-1.934l-7.5-7.501a1.369 1.369 0 00-1.079-.396l-.433.035a9.983 9.983 0 01-5.707-1.242l.88-.882A21.248 21.248 0 0051.2 45.262zm-31.05-9.08a2.402 2.402 0 01-1.709.709 2.401 2.401 0 01-1.71-.708l-3.695-3.695a2.42 2.42 0 010-3.42 2.402 2.402 0 011.71-.708c.646 0 1.253.251 1.71.708l3.695 3.695a2.421 2.421 0 010 3.42zm5.355-5.353a2.421 2.421 0 01-3.42 0l-5.532-5.532a2.42 2.42 0 010-3.42 2.402 2.402 0 011.71-.708c.645 0 1.253.251 1.71.708l5.531 5.532c.457.457.709 1.064.709 1.71 0 .646-.252 1.253-.708 1.71zm5.353-5.354a2.421 2.421 0 01-3.42 0l-6.87-6.87a2.402 2.402 0 01-.708-1.71c0-.646.251-1.253.708-1.71a2.41 2.41 0 011.71-.707c.619 0 1.237.236 1.708.706l6.872 6.871c.457.457.708 1.064.708 1.71a2.4 2.4 0 01-.708 1.71zm5.354-5.353a2.42 2.42 0 01-3.42 0l-6.87-6.87-.003-.003-1.336-1.336a2.421 2.421 0 010-3.42 2.41 2.41 0 011.71-.707c.62 0 1.239.235 1.71.707l8.209 8.209c.456.456.708 1.064.708 1.71 0 .646-.251 1.253-.708 1.71zm.36-6.928l-3.757-3.756c.426.09.864.14 1.31.139h.03l3.753-.018a1.368 1.368 0 00-.007-2.735h-.006l-3.753.018h-.017a3.45 3.45 0 01-2.45-1.011 3.45 3.45 0 01-1.023-2.462v-.426h9.37c1.761 0 3.458.739 4.658 2.027l.055.06-8.164 8.164z" fill="#98B61D"/></svg>