<svg width="58" height="48" viewBox="0 0 58 48" fill="none" xmlns="http://www.w3.org/2000/svg"><path d="M58 3.873C58 1.743 56.28 0 54.18 0c-2.1 0-3.819 1.743-3.819 3.873V7.8c0 .507.414.927.914.927s.914-.42.914-.927V3.873c0-1.115.892-2.02 1.992-2.02 1.099 0 1.99.905 1.99 2.02V17.674h-2.045v-3.001c0-1.048-.849-1.909-1.883-1.909H1.883c-1.034 0-1.883.86-1.883 1.909v7.855c0 1.048.849 1.908 1.883 1.908h.054v21.655c0 1.049.849 1.91 1.883 1.91h46.487c1.033 0 1.882-.861 1.882-1.91V34.255h3.983V47.075c0 .507.413.926.914.926.5 0 .914-.419.914-.926V3.873zm-7.639 42.274H45.41v-18.71a.926.926 0 00-.914-.927c-.5 0-.914.42-.914.927v18.71h-3.983v-18.71a.926.926 0 00-.914-.927c-.5 0-.914.42-.914.927v18.71h-3.983v-18.71a.926.926 0 00-.914-.927c-.5 0-.914.42-.914.927v18.71H27.977v-18.71a.926.926 0 00-.914-.927c-.5 0-.914.42-.914.927v18.71h-3.983v-18.71a.926.926 0 00-.914-.927c-.5 0-.914.42-.914.927v18.71h-3.983v-18.71a.926.926 0 00-.914-.927c-.5 0-.914.42-.914.927v18.71h-3.983v-18.71a.926.926 0 00-.914-.927c-.5 0-.914.42-.914.927v18.71H3.765V24.436H50.361v21.711zm.914-23.564H1.828v-7.965h50.47v7.965h-1.023zm4.897-3V32.4H52.189v-7.965h.054c1.034 0 1.883-.86 1.883-1.908V19.527h2.046v.055z" fill="#899752"/></svg>