<svg width="58" height="58" viewBox="0 0 58 58" fill="none" xmlns="http://www.w3.org/2000/svg"><path d="M56.573 51.738h-5.834c-.657 0-1.19-.138-1.677-.45-1.767-1.121-3.172-4.691-4.021-6.829-.091-.242-.193-.473-.284-.716-1.382-3.466-3.103-7.776-6.536-9.994-1.53-.994-3.274-1.502-5.177-1.502h-2.288V22.38c.816 0 1.575-.323 2.152-.913.578-.589.895-1.363.895-2.206 0-.832-.317-1.618-.895-2.207l-6.332-6.436a.843.843 0 00-1.201 0 .884.884 0 000 1.225l6.332 6.435c.261.266.397.613.397.983s-.136.716-.397.982a1.329 1.329 0 01-1.914 0L17.502 7.707a.843.843 0 00-1.2 0L4.01 20.243c-.26.265-.6.404-.963.404-.362 0-.702-.139-.963-.404-.249-.255-.396-.601-.396-.97 0-.37.136-.717.396-.983L15.94 4.16a1.333 1.333 0 011.914 0l4.905 5.002a.843.843 0 001.201 0 .884.884 0 000-1.224l-4.894-5.015a3.012 3.012 0 00-2.163-.912c-.816 0-1.586.323-2.153.912L.895 17.053A3.134 3.134 0 000 19.26c0 .832.317 1.618.895 2.196.578.589 1.337.913 2.152.913v33.898H.85a.864.864 0 00-.85.867c0 .474.385.866.85.866h55.768c.759 0 1.382-.635 1.382-1.41v-3.408c0-.785-.646-1.444-1.427-1.444zm-49.776 4.53h-2.05V38.508h2.05v17.758zm5.845 0H8.496V38.508h4.146v17.758zm6.831 0h-5.132v-2.762h5.132v2.761zm0-4.495h-5.132v-3.27h5.132v3.27zm0-5.003h-5.132V43.5h5.132v3.27zm0-5.003h-5.132v-3.27h5.132v3.27zm-6.82-4.99v-4.299c0-2.392 1.915-4.344 4.26-4.344 2.345 0 4.26 1.952 4.26 4.344v4.298h-8.52zm12.654 19.49h-4.135V38.51h4.135v17.758zm-2.447-19.49v-4.299c0-3.35-2.673-6.077-5.958-6.077-3.286 0-5.959 2.726-5.959 6.077v4.298H4.735V21.86c.17-.115.329-.242.476-.393L16.9 9.544l11.691 11.923c.148.15.306.278.476.393v14.916H22.86zm7.907 13.76a.864.864 0 00-.85-.867.864.864 0 00-.849.867v5.73h-2.062V38.51h2.062v8.03c0 .474.385.867.85.867.464 0 .85-.393.85-.867v-8.03h2.288c.725 0 1.325.162 1.869.52 1.8 1.167 3.138 4.54 4.021 6.77.113.278.215.555.329.832 1.314 3.305 2.934 7.383 6.049 9.648H30.767v-5.742zm25.534 5.73H50.75c-1.473 0-2.82-.381-4.01-1.132-2.968-1.872-4.509-5.754-5.868-9.162-.113-.277-.215-.555-.329-.82-.962-2.438-2.424-6.112-4.69-7.58-.826-.531-1.733-.797-2.786-.797h-2.288V33.98h2.288c1.574 0 3.013.416 4.26 1.236 2.967 1.93 4.508 5.789 5.867 9.197.09.231.193.474.283.705.975 2.484 2.459 6.239 4.702 7.648.758.474 1.597.717 2.571.717h5.55v2.784zM38.957 17.354h12.439c3.636 0 6.593-3.015 6.593-6.724s-2.957-6.724-6.593-6.724h-.125C49.946 1.514 47.42 0 44.701 0c-4.169 0-7.556 3.455-7.556 7.695 0 .162 0 .312.011.474-1.733.728-2.888 2.45-2.888 4.413.01 2.623 2.107 4.772 4.69 4.772zm-.68-7.73a.872.872 0 00.646-.981 6.664 6.664 0 01-.068-.948c0-3.293 2.629-5.962 5.857-5.962 2.266 0 4.339 1.352 5.302 3.443a.86.86 0 00.86.497c.193-.023.363-.034.544-.034 2.697 0 4.894 2.241 4.894 4.99 0 2.75-2.197 4.992-4.894 4.992H38.98c-1.642 0-2.98-1.363-2.98-3.039a2.963 2.963 0 012.278-2.957z" fill="#899752"/><path d="M16.902 16.118c-2.085 0-3.784 1.733-3.784 3.859s1.7 3.859 3.784 3.859c2.084 0 3.783-1.733 3.783-3.86 0-2.125-1.7-3.858-3.783-3.858zm0 5.973c-1.145 0-2.085-.947-2.085-2.126 0-1.178.93-2.126 2.085-2.126 1.144 0 2.084.948 2.084 2.126 0 1.179-.94 2.126-2.084 2.126z" fill="#899752"/></svg>