<svg width="58" height="58" viewBox="0 0 58 58" fill="none" xmlns="http://www.w3.org/2000/svg"><path d="M28.045 38.66h-1.933v1.933h1.933V38.66z" fill="#899752"/><path d="M57.528 16.565l-7.25-4.252V5.802h.967a.97.97 0 00.967-.967V.97a.97.97 0 00-.967-.967h-9.667a.97.97 0 00-.966.967v3.865a.97.97 0 00.966.967h.967v1.981L29.495.136a.949.949 0 00-.979 0L.483 16.566a.985.985 0 00-.483.833v4.832a.97.97 0 00.967.966c.169 0 .338-.048.483-.133l2.417-1.413v25.284a3.846 3.846 0 00-1.934 3.334c0 .17.012.338.037.507A3.86 3.86 0 003.867 58h50.266a3.86 3.86 0 001.897-7.224c.024-.169.036-.338.036-.507a3.846 3.846 0 00-1.933-3.334V21.65l2.416 1.413a.956.956 0 001.318-.35.968.968 0 00.132-.483v-4.832a.923.923 0 00-.47-.834zM42.545 1.936h7.733V3.87h-7.733V1.936zm1.933 3.866h3.867v5.376l-3.867-2.272V5.802zm-40.6 50.253a1.928 1.928 0 01-1.933-1.92c0-.87.58-1.643 1.426-1.86a.96.96 0 00.677-1.184l-.036-.11a1.926 1.926 0 011.063-2.512 1.927 1.927 0 012.513 1.063c.037.073.06.157.073.23a.961.961 0 001.184.676l.109-.036a1.941 1.941 0 012.513 1.111c.024.06.048.121.06.181a.961.961 0 001.184.677l.11-.036a1.927 1.927 0 012.513 1.063 1.926 1.926 0 01-1.064 2.512 1.91 1.91 0 01-.737.145H3.88zm13.534-1.932h23.2c0 .676.193 1.353.531 1.932H16.868c.35-.58.532-1.256.544-1.932zm16.433-5.799H24.18V30.93h9.666v17.395zm1.933 1.933v1.933H22.245v-1.933h13.533zm18.862 2.017a1.925 1.925 0 011.366 2.356 1.925 1.925 0 01-1.861 1.425h-9.667a1.947 1.947 0 01-1.945-1.92c0-1.063.858-1.933 1.921-1.945.254 0 .508.048.737.145.496.193 1.063-.037 1.257-.532l.036-.108a1.937 1.937 0 012.393-1.353c.06.012.12.036.18.06.496.193 1.064-.036 1.258-.532l.036-.108a1.925 1.925 0 012.356-1.365 1.924 1.924 0 011.365 2.355c-.024.073-.048.157-.072.23-.193.495.036 1.063.532 1.256l.108.036zm-2.428-5.883a3.88 3.88 0 00-3.36 1.97 3.876 3.876 0 00-3.866 1.932 3.58 3.58 0 00-.508-.036 3.847 3.847 0 00-3.335 1.933h-3.431v-2.9a.97.97 0 00-.967-.966h-.967V29.962a.97.97 0 00-.966-.966h-11.6a.97.97 0 00-.967.966v18.362h-.966a.97.97 0 00-.967.967v2.899h-3.444a3.847 3.847 0 00-3.335-1.933c-.169 0-.338.012-.507.036a3.896 3.896 0 00-3.867-1.933 3.88 3.88 0 00-3.36-1.969V20.516L29 6.912l23.2 13.602v25.876h.013zm1.8-27.06L29.495 4.969a.949.949 0 00-.979 0L4.012 19.332l-.133.084-1.934 1.136v-2.598l27.067-15.86 27.066 15.86v2.598l-1.933-1.136-.133-.084z" fill="#899752"/><path d="M23.212 19.332v4.832a.97.97 0 00.966.966h9.667a.97.97 0 00.967-.966v-4.832a5.8 5.8 0 00-11.6 0zm4.833-3.733v2.766h-2.767a3.884 3.884 0 012.767-2.766zm-2.9 4.7h2.9v2.898h-2.9v-2.899zm4.834 2.898v-2.899h2.9v2.9h-2.9zm2.754-4.832h-2.767V15.6a3.864 3.864 0 012.767 2.766zM39.645 40.593h9.667a.97.97 0 00.966-.967v-9.664a.97.97 0 00-.966-.966h-9.667a.97.97 0 00-.967.966v9.664a.97.97 0 00.967.967zm.967-1.933v-1.933h7.733v1.933h-7.733zm7.733-7.731v3.865h-7.733V30.93h7.733zM18.379 28.996H8.712a.97.97 0 00-.967.966v9.664a.97.97 0 00.967.967h9.667a.97.97 0 00.966-.967v-9.664a.97.97 0 00-.966-.966zm-.967 1.933v3.865H9.679V30.93h7.733zM9.679 38.66v-1.933h7.733v1.933H9.679z" fill="#899752"/></svg>