<svg width="58" height="58" viewBox="0 0 58 58" fill="none" xmlns="http://www.w3.org/2000/svg"><path d="M57.721 25.831L29.57.221a.85.85 0 00-1.142 0L.275 25.83a.846.846 0 00-.08 1.165l2.816 3.426c.147.17.35.283.577.305a.838.838 0 00.622-.192c.01-.011.022-.022.034-.022L6.9 28.082v5.031c-1.865.396-3.075 2.24-2.702 4.116A3.484 3.484 0 006.9 39.965v5.914a3.52 3.52 0 00-2.182 1.481c-.52.78-.7 1.719-.52 2.635A3.484 3.484 0 006.9 52.73v4.421c0 .464.385.848.848.848H50.26a.854.854 0 00.848-.848v-4.42a3.5 3.5 0 002.702-4.116 3.484 3.484 0 00-2.702-2.737v-5.913a3.476 3.476 0 002.182-1.482 3.5 3.5 0 00.52-2.634 3.484 3.484 0 00-2.702-2.737v-5.031l2.668 2.43a.835.835 0 00.566.227h.056a.84.84 0 00.6-.306l2.803-3.425a.848.848 0 00-.079-1.177zm-31.826 8.9v21.573H14.136V34.73h11.759zM12.44 52.81v3.493H8.596V52.81h3.844zm33.127-14.462V34.73h4.805c.972 0 1.764.77 1.81 1.73v.08c0 .994-.815 1.809-1.81 1.809h-4.805zm0 7.45v-5.754h3.844V45.8h-3.844zm0 1.697h4.805c.972 0 1.775.78 1.81 1.753v.056c0 .995-.815 1.81-1.81 1.81h-4.805v-3.619zm3.844-20.229v5.756H8.596v-5.756h40.815zM9.66 25.572l3.98-3.619H44.38l3.98 3.619H9.66zm5.834-5.315l13.51-12.29 13.511 12.29H15.493zm40.498 6.287l-1.73 2.103-8.977-8.175L29.57 6.19a.85.85 0 00-1.142 0L3.746 28.658l-1.73-2.114 26.988-24.56 26.987 24.56zM7.635 47.496h4.805v3.618H7.635a1.814 1.814 0 01-1.809-1.809c0-.995.814-1.809 1.81-1.809zM12.44 34.73v3.619H7.635a1.814 1.814 0 01-1.809-1.81c0-.995.814-1.809 1.81-1.809h4.804zm0 5.315V45.8H8.596v-5.755h3.844zM49.411 52.81v3.494h-21.82V52.81h21.82zm-21.82-14.462V34.73h2.826v3.619H27.59zm0 7.452v-5.755h2.826V45.8H27.59zm0 5.314v-3.618h2.826v3.618H27.59zm9.553-7.35v7.35h-5.031v-7.35h5.031zm-5.031-1.695v-7.35h5.031v7.35h-5.031zm6.727 0v-7.35h5.031v7.35H38.84zm0 9.045v-7.35h5.031v7.35H38.84z" fill="#899752"/><path d="M23.125 48.005a.854.854 0 00.848-.848v-3.471a.854.854 0 00-.848-.849.854.854 0 00-.848.848v3.472a.847.847 0 00.848.848z" fill="#899752"/></svg>