<svg width="58" height="58" viewBox="0 0 58 58" fill="none" xmlns="http://www.w3.org/2000/svg"><path d="M57.965 52.568c0-.47-.4-.858-.88-.858h-.63V16.596h.686c.298 0 .56-.148.721-.4a.848.848 0 00.057-.824L51.055.505A.872.872 0 0050.278 0H7.859a.852.852 0 00-.778.504L.217 15.373a.848.848 0 00.058.823c.16.252.423.4.72.4h.687V51.71H.824c-.47 0-.824.377-.824.858v4.575c0 .48.366.857.824.857h56.26c.48 0 .881-.389.881-.858v-4.575zm-8.237-50.84l6.063 13.153h-7.927l-3.867-7.183 2.757-5.97h2.974zm5.011 14.868V51.71h-2.86V16.596h2.86zm-12.87 25.392h8.294v2.86H33.358v-7.435h16.805v2.86H41.87a.864.864 0 00-.858.857c0 .469.39.858.858.858zm8.294 4.575v5.147h-8.58v-5.147h8.58zm-10.296 0v5.147h-2.86v-5.147h2.86zM32.49 35.697a.864.864 0 00-.858.858v9.15c0 .469.389.858.858.858h2.803v5.147H22.834v-5.147h2.802a.864.864 0 00.858-.858v-9.15a.864.864 0 00-.858-.858H7.973v-4.289L22 16.596h14.14l.08.092 13.944 14.72v4.29H32.49zm-24.515 9.15v-2.86h8.293a.864.864 0 00.858-.857.864.864 0 00-.858-.858H7.974v-2.86h16.804v7.435H7.974zm13.144 1.716v5.147h-2.86v-5.147h2.86zm-4.576 0v5.147h-8.58v-5.147h8.58zm-3.764-29.967l-4.805 5.102v-5.102h4.805zm-.572-1.715l2.814-5.227 2.414 5.227h-5.228zm2.826 1.83h4.496L7.974 28.915v-4.713l7.058-7.491zm7.367-1.83l2.093-4.53 2.094 4.53h-4.187zm9.152 0l2.093-4.53 2.094 4.53H31.55zm7.058 1.83h4.496l7.058 7.491v4.713L38.61 16.71zm2.082-1.83l2.414-5.227 2.814 5.227h-5.228zm4.656 1.715h4.805v5.102l-4.805-5.102zm-.469-14.869L42.99 5.811l-2.196-4.084h4.084zm-6.04 0l3.249 6.04-3.284 7.114h-1.19l-3.03-6.577 3.03-6.577h1.225zm-3.112 0l-2.093 4.53-2.082-4.53h4.175zm-6.063 0l3.032 6.577-3.032 6.577h-1.19l-3.031-6.577 3.032-6.577h1.19zm-3.077 0l-2.094 4.53-2.093-4.53h4.187zm-6.075 0l3.032 6.577-3.032 6.577h-1.19l-3.283-7.115 3.25-6.039h1.223zm-3.168 0l-2.197 4.084-1.887-4.084h4.084zm-8.946 0h2.963l2.757 5.97-3.867 7.184H2.322L8.397 1.727zm-2.14 14.87V51.71h-2.86V16.596h2.86zm49.958 39.688H1.67v-2.86h54.545v2.86z" fill="#899752"/></svg>