<svg width="32" height="32" fill="none" xmlns="http://www.w3.org/2000/svg"><path fill-rule="evenodd" clip-rule="evenodd" d="M32 16c0 8.837-7.163 16-16 16S0 24.837 0 16 7.163 0 16 0s16 7.163 16 16zm-15.349 7.017h-1.255s-2.771.167-5.211-2.373c-2.661-2.771-5.011-8.27-5.011-8.27s-.136-.36.011-.534c.166-.196.616-.209.616-.209l3.002-.02s.283.048.486.197c.166.122.26.351.26.351s.485 1.228 1.128 2.338c1.254 2.167 1.838 2.64 2.264 2.409.62-.339.434-3.064.434-3.064s.012-.99-.312-1.43c-.25-.34-.724-.44-.933-.468-.168-.023.109-.415.468-.591.54-.265 1.494-.28 2.622-.268.878.009 1.13.063 1.474.146.797.193.772.81.718 2.14-.016.397-.034.858-.034 1.39 0 .12-.004.248-.008.38-.018.68-.04 1.46.409 1.75.23.148.792.022 2.199-2.366.667-1.132 1.167-2.463 1.167-2.463s.109-.238.279-.34c.173-.104.407-.072.407-.072l3.16-.02s.949-.112 1.102.316c.162.45-.354 1.5-1.645 3.22-1.226 1.634-1.821 2.234-1.765 2.766.04.388.428.739 1.17 1.427 1.555 1.444 1.969 2.202 2.067 2.382a.958.958 0 00.019.032c.695 1.154-.772 1.244-.772 1.244l-2.806.04s-.603.119-1.396-.426c-.415-.285-.82-.75-1.207-1.193-.591-.677-1.137-1.303-1.604-1.156-.782.248-.757 1.933-.757 1.933s.006.36-.173.552c-.193.209-.573.25-.573.25z" fill="#A585D9"/></svg>