<svg width="32" height="32" fill="none" xmlns="http://www.w3.org/2000/svg"><g clip-path="url(#clip0)"><path d="M16 0C7.165 0 0 7.166 0 16s7.165 16 16 16c8.834 0 16-7.166 16-16S24.834 0 16 0zm9.26 16c0 5.104-4.156 9.26-9.26 9.26S6.773 21.104 6.773 16s4.155-9.26 9.26-9.26a9.05 9.05 0 016.02 2.258l-2.421 2.781a5.502 5.502 0 00-3.6-1.341c-3.043 0-5.562 2.486-5.562 5.562a5.558 5.558 0 005.562 5.562 5.532 5.532 0 005.236-3.697h-5.236v-3.697h9.26V16h-.033z" fill="#A585D9"/></g><defs><clipPath id="clip0"><path fill="#fff" d="M0 0h32v32H0z"/></clipPath></defs></svg>