<svg width="32" height="32" fill="none" xmlns="http://www.w3.org/2000/svg"><g clip-path="url(#clip0)" fill="#A585D9"><path d="M16.015 13.26a2.74 2.74 0 002.739-2.763A2.745 2.745 0 0016 7.745a2.75 2.75 0 00-2.76 2.785 2.745 2.745 0 002.775 2.73z"/><path d="M16 0C7.163 0 0 7.164 0 16s7.163 16 16 16c8.836 0 16-7.164 16-16S24.836 0 16 0zm.023 4.866c3.116.008 5.618 2.557 5.602 5.708-.016 3.079-2.558 5.573-5.67 5.563-3.08-.01-5.605-2.564-5.587-5.648.018-3.118 2.545-5.632 5.655-5.623zm6.312 13.485c-.69.708-1.519 1.22-2.44 1.577-.87.337-1.825.507-2.77.62.143.156.21.232.3.32 1.281 1.29 2.57 2.572 3.847 3.865.436.44.526.986.287 1.498-.262.56-.849.928-1.425.888-.364-.025-.649-.206-.901-.46-.968-.974-1.954-1.93-2.901-2.922-.277-.29-.41-.234-.653.017a192.576 192.576 0 01-2.957 2.97c-.447.44-.979.52-1.497.268-.551-.267-.902-.83-.875-1.395.02-.382.207-.675.47-.936 1.269-1.267 2.534-2.537 3.8-3.806.084-.085.162-.174.284-.305-1.726-.18-3.283-.605-4.616-1.647-.165-.13-.336-.255-.487-.4-.583-.56-.642-1.202-.18-1.863.394-.566 1.057-.717 1.746-.392.134.063.26.142.383.226 2.483 1.706 5.895 1.753 8.388.076.247-.189.511-.344.817-.422.595-.153 1.15.066 1.469.586.365.595.36 1.175-.09 1.637z"/></g><defs><clipPath id="clip0"><path fill="#fff" d="M0 0h32v32H0z"/></clipPath></defs></svg>