<svg width="32" height="32" fill="none" xmlns="http://www.w3.org/2000/svg"><g clip-path="url(#clip0)" fill="#A585D9"><path d="M16 13.18a2.866 2.866 0 00-2.863 2.863A2.867 2.867 0 0016 18.906a2.866 2.866 0 002.862-2.863A2.866 2.866 0 0016 13.18z"/><path fill-rule="evenodd" clip-rule="evenodd" d="M20.768 8.514h-9.537a2.764 2.764 0 00-2.76 2.76v9.538a2.764 2.764 0 002.76 2.761h9.537a2.764 2.764 0 002.762-2.761v-9.538a2.764 2.764 0 00-2.762-2.76zM16 21a4.963 4.963 0 01-4.958-4.958A4.963 4.963 0 0116 11.086a4.963 4.963 0 014.957 4.957A4.964 4.964 0 0116 21.001zm5.117-8.89a1.174 1.174 0 01-1.174-1.173 1.174 1.174 0 012.347 0c0 .647-.526 1.173-1.173 1.173z"/><path fill-rule="evenodd" clip-rule="evenodd" d="M0 16C0 7.164 7.164 0 16 0s16 7.164 16 16-7.164 16-16 16S0 24.836 0 16zm20.768 9.668a4.86 4.86 0 004.856-4.856v-9.538A4.861 4.861 0 0020.77 6.42h-9.54a4.861 4.861 0 00-4.856 4.855v9.538a4.861 4.861 0 004.856 4.856h9.537z"/></g><defs><clipPath id="clip0"><path fill="#fff" d="M0 0h32v32H0z"/></clipPath></defs></svg>