<svg width="32" height="32" viewBox="0 0 32 32" fill="none" xmlns="http://www.w3.org/2000/svg">
<g clip-path="url(#clip0)">
<path d="M27.51 4.48975C24.6148 1.59444 20.7653 0 16.6708 0C12.5763 0 8.72682 1.59444 5.83151 4.48975C2.93619 7.38506 1.34182 11.2344 1.34182 15.3289C1.34182 17.9226 1.99838 20.4714 3.24463 22.7291L-0.000244141 32L9.27057 28.7552C11.5283 30.0013 14.0771 30.6579 16.6708 30.6579C20.7653 30.6579 24.6148 29.0634 27.5099 26.1682C30.4053 23.2729 31.9998 19.4235 31.9998 15.3289C31.9998 11.2344 30.4053 7.385 27.51 4.48975ZM24.2488 21.0234L22.4791 22.7931C21.0131 24.2591 16.8534 22.4765 13.1884 18.8114C9.52326 15.1462 7.74057 10.9867 9.20663 9.52063L10.9763 7.751C11.3428 7.3845 11.937 7.3845 12.3035 7.751L14.5156 9.96306C14.8821 10.3296 14.8821 10.9238 14.5156 11.2903L13.1883 12.6176C14.4758 15.3355 16.6643 17.5239 19.3822 18.8114L20.7094 17.4841C21.0759 17.1176 21.6702 17.1176 22.0367 17.4841L24.2488 19.6962C24.6153 20.0627 24.6153 20.6569 24.2488 21.0234Z" fill="#A585D9"/>
</g>
<defs>
<clipPath id="clip0">
<rect width="32" height="32" fill="white"/>
</clipPath>
</defs>
</svg>
