<svg width="32" height="32" fill="none" xmlns="http://www.w3.org/2000/svg"><g clip-path="url(#clip0)"><path d="M27.51 4.49A15.228 15.228 0 0016.67 0 15.229 15.229 0 005.833 4.49a15.228 15.228 0 00-4.49 10.839c0 2.594.656 5.142 1.903 7.4L0 32l9.27-3.245a15.322 15.322 0 007.4 1.903 15.23 15.23 0 0010.84-4.49A15.228 15.228 0 0032 15.328c0-4.094-1.595-7.943-4.49-10.838zm-3.261 16.533l-1.77 1.77c-1.466 1.466-5.626-.316-9.29-3.982-3.666-3.665-5.448-7.824-3.982-9.29l1.77-1.77a.938.938 0 011.326 0l2.213 2.212a.939.939 0 010 1.327l-1.328 1.328a13.023 13.023 0 006.194 6.193l1.327-1.327a.939.939 0 011.328 0l2.212 2.212a.938.938 0 010 1.327z" fill="#A585D9"/></g><defs><clipPath id="clip0"><path fill="#fff" d="M0 0h32v32H0z"/></clipPath></defs></svg>