<svg width="32" height="32" viewBox="0 0 32 32" fill="none" xmlns="http://www.w3.org/2000/svg">
<g clip-path="url(#clip0)">
<path fill-rule="evenodd" clip-rule="evenodd" d="M31.9998 16C31.9998 24.8365 24.8363 32 15.9998 32C7.16321 32 -0.000244141 24.8365 -0.000244141 16C-0.000244141 7.16345 7.16321 0 15.9998 0C24.8363 0 31.9998 7.16345 31.9998 16ZM17.1671 16.6263H20.0222L20.4001 12.9539H17.1674V10.7905C17.1674 9.97913 17.7036 9.78857 18.085 9.78857H20.4097V6.22052L17.2056 6.20715C13.6496 6.20715 12.8416 8.87079 12.8416 10.5718V12.9505H10.7843V16.6263H12.8416V27.0858H17.1671V16.6263Z" fill="#A585D9"/>
</g>
<defs>
<clipPath id="clip0">
<rect width="32" height="32" fill="white"/>
</clipPath>
</defs>
</svg>
