<svg width="32" height="32" fill="none" xmlns="http://www.w3.org/2000/svg"><g clip-path="url(#clip0)"><path fill-rule="evenodd" clip-rule="evenodd" d="M32 16c0 8.837-7.164 16-16 16-8.837 0-16-7.163-16-16S7.163 0 16 0c8.836 0 16 7.163 16 16zm-14.833.626h2.855l.378-3.672h-3.233V10.79c0-.81.537-1.001.918-1.001h2.325V6.22l-3.204-.014c-3.556 0-4.364 2.664-4.364 4.365v2.379h-2.058v3.675h2.058v10.46h4.325v-10.46z" fill="#A585D9"/></g><defs><clipPath id="clip0"><path fill="#fff" d="M0 0h32v32H0z"/></clipPath></defs></svg>