<svg width="32" height="32" viewBox="0 0 32 32" fill="none" xmlns="http://www.w3.org/2000/svg">
<g clip-path="url(#clip0)">
<path d="M16.0148 13.2607C17.5426 13.2551 18.7594 12.0278 18.7539 10.4968C18.7483 8.96496 17.5289 7.74618 16.0004 7.74487C14.4592 7.74323 13.2283 8.98461 13.2401 10.5301C13.2515 12.0557 14.4821 13.2663 16.0148 13.2607Z" fill="#A585D9"/>
<path d="M15.9998 0C7.16317 0 -0.000244141 7.16374 -0.000244141 16C-0.000244141 24.8363 7.16317 32 15.9998 32C24.8363 32 31.9998 24.8363 31.9998 16C31.9998 7.16374 24.8363 0 15.9998 0ZM16.0227 4.86564C19.1392 4.87415 21.6406 7.42334 21.6246 10.5742C21.6088 13.6525 19.0665 16.1473 15.9552 16.1368C12.8757 16.1264 10.3501 13.5732 10.3684 10.4888C10.3858 7.37064 12.9127 4.85713 16.0227 4.86564ZM22.3349 18.3511C21.6458 19.0586 20.8163 19.5706 19.8951 19.9277C19.0243 20.2652 18.07 20.4352 17.1252 20.5484C17.2683 20.7036 17.3354 20.7799 17.4245 20.8689C18.7064 22.1577 19.9946 23.44 21.2723 24.7325C21.7077 25.1731 21.7984 25.7192 21.5588 26.2308C21.2972 26.7906 20.7102 27.1586 20.1344 27.119C19.7697 27.0938 19.4852 26.9127 19.2328 26.6584C18.2651 25.6848 17.2791 24.7286 16.3317 23.7366C16.0551 23.4479 15.9228 23.5029 15.6789 23.7537C14.7057 24.7561 13.7164 25.7424 12.7215 26.7235C12.2747 27.1642 11.743 27.244 11.2245 26.992C10.6735 26.7255 10.3232 26.1627 10.3501 25.5967C10.3691 25.215 10.557 24.9224 10.8195 24.6611C12.0887 23.3945 13.354 22.124 14.6196 20.8545C14.7037 20.7704 14.7816 20.681 14.9037 20.5501C13.1775 20.3697 11.6209 19.9448 10.2882 18.9028C10.1226 18.7731 9.952 18.6481 9.80141 18.5027C9.21772 17.9426 9.15912 17.3006 9.62038 16.64C10.0155 16.0743 10.6781 15.9231 11.3672 16.2481C11.5008 16.3107 11.6278 16.3899 11.7496 16.4737C14.233 18.1803 17.6448 18.2271 20.138 16.55C20.3848 16.3614 20.649 16.2062 20.9551 16.128C21.5496 15.9748 22.1048 16.1938 22.4237 16.7143C22.7887 17.3091 22.7844 17.8892 22.3349 18.3511Z" fill="#A585D9"/>
</g>
<defs>
<clipPath id="clip0">
<rect width="32" height="32" fill="white"/>
</clipPath>
</defs>
</svg>
