<svg width="32" height="32" fill="none" xmlns="http://www.w3.org/2000/svg"><path fill-rule="evenodd" clip-rule="evenodd" d="M32 16c0 8.836-7.164 16-16 16-8.837 0-16-7.164-16-16C0 7.163 7.163 0 16 0c8.836 0 16 7.163 16 16zm-8.397-3.9a7.627 7.627 0 002.197-.6 7.754 7.754 0 01-1.909 1.979c.007.164.011.329.011.495 0 5.054-3.847 10.881-10.881 10.881-2.16 0-4.17-.633-5.862-1.718.298.036.603.053.912.053a7.673 7.673 0 004.75-1.637 3.829 3.829 0 01-3.573-2.655 3.828 3.828 0 001.727-.067 3.827 3.827 0 01-3.068-3.75v-.048c.516.287 1.106.46 1.732.479a3.824 3.824 0 01-1.183-5.106A10.856 10.856 0 0016.34 14.4a3.825 3.825 0 016.517-3.489 7.63 7.63 0 002.429-.927 3.834 3.834 0 01-1.682 2.115z" fill="#A585D9"/></svg>