<svg width="32" height="32" viewBox="0 0 32 32" fill="none" xmlns="http://www.w3.org/2000/svg">
<g clip-path="url(#clip0)">
<path d="M15.9998 0C7.1654 0 -0.000244141 7.16564 -0.000244141 16C-0.000244141 24.8344 7.1654 32 15.9998 32C24.8341 32 31.9998 24.8344 31.9998 16C31.9998 7.16564 24.8341 0 15.9998 0ZM25.2595 16C25.2595 21.1043 21.104 25.2597 15.9998 25.2597C10.8955 25.2597 6.77276 21.1043 6.77276 16C6.77276 10.8957 10.9282 6.74029 16.0325 6.74029C18.2574 6.74029 20.3842 7.52556 22.0529 8.99795L19.6317 11.7791C18.6501 10.9284 17.374 10.4376 16.0325 10.4376C12.9895 10.4376 10.4701 12.9243 10.4701 16C10.4701 19.0757 12.9568 21.5624 16.0325 21.5624C18.4537 21.5624 20.5151 20.0245 21.2676 17.865H16.0325V14.1677H25.2922V16H25.2595Z" fill="#A585D9"/>
</g>
<defs>
<clipPath id="clip0">
<rect width="32" height="32" fill="white"/>
</clipPath>
</defs>
</svg>
