<svg width="32" height="32" viewBox="0 0 32 32" fill="none" xmlns="http://www.w3.org/2000/svg">
<g clip-path="url(#clip0)">
<path d="M15.9998 13.1807C14.4218 13.1807 13.1369 14.4648 13.1369 16.0428C13.1369 17.6214 14.4218 18.9059 15.9998 18.9059C17.5784 18.9059 18.8622 17.6214 18.8622 16.0428C18.8622 14.4652 17.578 13.1807 15.9998 13.1807Z" fill="#A585D9"/>
<path fill-rule="evenodd" clip-rule="evenodd" d="M20.7685 8.51367H11.231C9.7087 8.51367 8.47017 9.7522 8.47017 11.2745V20.812C8.47017 22.3343 9.7087 23.5732 11.231 23.5732H20.7685C22.2908 23.5732 23.5297 22.3346 23.5297 20.812V11.2745C23.5297 9.7522 22.2912 8.51367 20.7685 8.51367ZM15.9997 21.0009C13.2664 21.0009 11.0424 18.777 11.0424 16.0432C11.0424 13.3098 13.2664 11.0859 15.9997 11.0859C18.7335 11.0859 20.9574 13.3098 20.9574 16.0432C20.9574 18.7766 18.7331 21.0009 15.9997 21.0009ZM21.1168 12.1109C20.4697 12.1109 19.9435 11.5847 19.9435 10.9379C19.9435 10.2912 20.4697 9.76503 21.1168 9.76503C21.7635 9.76503 22.2897 10.2912 22.2897 10.9379C22.2897 11.5847 21.7635 12.1109 21.1168 12.1109Z" fill="#A585D9"/>
<path fill-rule="evenodd" clip-rule="evenodd" d="M-0.000244141 16C-0.000244141 7.1638 7.16355 0 15.9998 0C24.836 0 31.9998 7.1638 31.9998 16C31.9998 24.8362 24.836 32 15.9998 32C7.16355 32 -0.000244141 24.8362 -0.000244141 16ZM20.7685 25.6676C23.4463 25.6676 25.6242 23.4896 25.6242 20.8119V11.2744C25.6242 8.59698 23.4463 6.41868 20.7685 6.41868H11.231C8.5536 6.41868 6.3753 8.59698 6.3753 11.2744V20.8119C6.3753 23.4896 8.5536 25.6676 11.231 25.6676H20.7685Z" fill="#A585D9"/>
</g>
<defs>
<clipPath id="clip0">
<rect width="32" height="32" fill="white"/>
</clipPath>
</defs>
</svg>
