<svg width="32" height="32" viewBox="0 0 32 32" fill="none" xmlns="http://www.w3.org/2000/svg">
<path fill-rule="evenodd" clip-rule="evenodd" d="M31.9997 15.9999C31.9997 24.8363 24.8363 31.9997 15.9999 31.9997C7.16338 31.9997 0 24.8363 0 15.9999C0 7.16338 7.16338 0 15.9999 0C24.8363 0 31.9997 7.16338 31.9997 15.9999ZM23.6029 12.1001C24.3764 12.0083 25.114 11.8027 25.7996 11.4986C25.2871 12.2656 24.6388 12.939 23.891 13.478C23.8984 13.6417 23.9021 13.8069 23.9021 13.9726C23.9021 19.0268 20.0552 24.8543 13.0207 24.8543C10.861 24.8543 8.8503 24.2214 7.1587 23.1359C7.45732 23.1715 7.76249 23.1895 8.07052 23.1895C9.8628 23.1895 11.5116 22.5783 12.8207 21.5524C11.1468 21.5213 9.73474 20.4155 9.24817 18.8965C9.48147 18.941 9.72076 18.9646 9.96776 18.9646C10.316 18.9646 10.6546 18.9182 10.9751 18.8303C9.22592 18.4792 7.9071 16.9336 7.9071 15.0806C7.9071 15.0646 7.9071 15.0484 7.90738 15.0321C8.42276 15.3193 9.01287 15.4913 9.63948 15.511C8.61385 14.8254 7.93819 13.6543 7.93819 12.3277C7.93819 11.627 8.127 10.9696 8.45613 10.4048C10.3425 12.7193 13.1607 14.2418 16.3391 14.4012C16.2735 14.1212 16.2396 13.8294 16.2396 13.5296C16.2396 11.4179 17.9523 9.70522 20.064 9.70522C21.1646 9.70522 22.1586 10.1695 22.8562 10.9125C23.727 10.7411 24.5458 10.4231 25.2848 9.98472C24.9987 10.8783 24.3927 11.627 23.6029 12.1001Z" fill="#A585D9"/>
</svg>
