<svg width="40" height="40" viewBox="0 0 40 40" xmlns="http://www.w3.org/2000/svg"><circle cx="20" cy="20" r="20" fill="url(#paint0_linear)"/><path d="M23.669 12H16.33A4.336 4.336 0 0012 16.331v7.338A4.336 4.336 0 0016.331 28h7.338A4.336 4.336 0 0028 23.669v-7.338A4.336 4.336 0 0023.669 12zM20 24.375A4.38 4.38 0 0115.625 20 4.38 4.38 0 0120 15.625 4.38 4.38 0 0124.375 20 4.38 4.38 0 0120 24.375zm4.48-7.718c-.713 0-1.293-.58-1.293-1.293s.58-1.293 1.293-1.293c.712 0 1.292.58 1.292 1.293s-.58 1.293-1.292 1.293z" fill="#fff"/><path d="M20 16.563A3.44 3.44 0 0016.563 20 3.44 3.44 0 0020 23.437 3.44 3.44 0 0023.437 20 3.44 3.44 0 0020 16.563z" fill="#fff"/><defs><linearGradient id="paint0_linear" x1="8.5" y1="35.5" x2="35" y2="8" gradientUnits="userSpaceOnUse"><stop stop-color="#EEA054"/><stop offset=".503" stop-color="#D64763"/><stop offset="1" stop-color="#B62A99"/></linearGradient></defs></svg>