<svg width="30" height="30" fill="none" xmlns="http://www.w3.org/2000/svg"><path d="M29.924 8.82c-.07-1.594-.328-2.69-.698-3.64a7.321 7.321 0 00-1.735-2.66A7.385 7.385 0 0024.836.791c-.955-.37-2.046-.627-3.64-.697C19.59.018 19.08 0 15.006 0s-4.584.018-6.184.088c-1.595.07-2.69.328-3.64.697A7.321 7.321 0 002.52 2.52 7.386 7.386 0 00.79 5.175C.422 6.13.164 7.22.094 8.815.018 10.42 0 10.93 0 15.002c0 4.073.018 4.583.088 6.183.07 1.594.328 2.69.698 3.64a7.398 7.398 0 001.735 2.66 7.385 7.385 0 002.655 1.729c.955.369 2.046.627 3.64.697 1.6.07 2.11.088 6.184.088s4.584-.017 6.184-.088c1.595-.07 2.69-.328 3.64-.697a7.674 7.674 0 004.39-4.39c.37-.955.628-2.045.698-3.64.07-1.6.088-2.109.088-6.182s-.006-4.583-.076-6.183zm-2.702 12.25c-.065 1.465-.311 2.256-.516 2.783a4.977 4.977 0 01-2.85 2.849c-.527.205-1.324.45-2.783.515-1.583.07-2.058.088-6.061.088-4.004 0-4.484-.017-6.061-.088-1.466-.064-2.257-.31-2.785-.515a4.618 4.618 0 01-1.723-1.12 4.665 4.665 0 01-1.12-1.723c-.205-.527-.45-1.324-.515-2.784-.07-1.582-.088-2.057-.088-6.06 0-4.002.017-4.483.088-6.06.064-1.464.31-2.255.516-2.783a4.56 4.56 0 011.125-1.723 4.658 4.658 0 011.723-1.12c.528-.204 1.325-.45 2.785-.515 1.582-.07 2.057-.088 6.06-.088 4.01 0 4.485.018 6.062.088 1.465.065 2.256.31 2.784.516.65.24 1.242.62 1.723 1.119a4.67 4.67 0 011.12 1.723c.205.528.451 1.325.516 2.784.07 1.582.088 2.057.088 6.06 0 4.002-.018 4.471-.088 6.054z" fill="#151618"/><path d="M15.006 7.296a7.71 7.71 0 00-7.708 7.707 7.71 7.71 0 0015.416 0 7.71 7.71 0 00-7.708-7.707zm0 12.706a5 5 0 110-9.996 5 5 0 010 9.996zm9.812-13.01a1.8 1.8 0 11-3.598-.001 1.8 1.8 0 013.598 0z" fill="#151618"/></svg>