<svg width="30" height="30" viewBox="0 0 30 30" fill="none" xmlns="http://www.w3.org/2000/svg">
<path d="M29.9238 8.82008C29.8535 7.22607 29.5956 6.13019 29.2263 5.18061C28.8453 4.17264 28.2591 3.27022 27.4912 2.52002C26.7408 1.75816 25.8323 1.16615 24.8358 0.79117C23.8805 0.421912 22.7902 0.16414 21.1958 0.0938599C19.5896 0.0176273 19.0797 0 15.0058 0C10.932 0 10.4221 0.0176273 8.82179 0.0879078C7.22747 0.158188 6.13138 0.416188 5.18184 0.785218C4.17345 1.16615 3.27085 1.7522 2.52051 2.52002C1.7585 3.27022 1.16661 4.1786 0.791324 5.17488C0.421993 6.13019 0.164172 7.22011 0.0938781 8.81413C0.0176307 10.42 0 10.9299 0 15.0029C0 19.076 0.0176307 19.5858 0.0879248 21.1858C0.158219 22.7798 0.416269 23.8757 0.785599 24.8253C1.16661 25.8332 1.7585 26.7356 2.52051 27.4858C3.27085 28.2477 4.17941 28.8397 5.17589 29.2147C6.13138 29.5839 7.22151 29.8417 8.81607 29.912C10.4161 29.9825 10.9263 29.9999 15.0001 29.9999C19.074 29.9999 19.5839 29.9825 21.1842 29.912C22.7785 29.8417 23.8746 29.5839 24.8241 29.2147C26.8407 28.4352 28.435 26.8412 29.2146 24.8253C29.5837 23.8699 29.8418 22.7798 29.9121 21.1858C29.9824 19.5858 30 19.076 30 15.0029C30 10.9299 29.994 10.42 29.9238 8.82008ZM27.2217 21.0686C27.1571 22.5337 26.911 23.3249 26.7058 23.8523C26.2016 25.1593 25.1641 26.1965 23.8569 26.7006C23.3294 26.9057 22.5323 27.1518 21.0727 27.2162C19.49 27.2867 19.0153 27.3041 15.0118 27.3041C11.0082 27.3041 10.5276 27.2867 8.9507 27.2162C7.48529 27.1518 6.69397 26.9057 6.16642 26.7006C5.51591 26.4602 4.92379 26.0793 4.44318 25.5812C3.94494 25.0947 3.56393 24.5086 3.32351 23.8583C3.11836 23.3308 2.87221 22.5337 2.80787 21.0745C2.73735 19.4922 2.71995 19.0174 2.71995 15.0146C2.71995 11.0118 2.73735 10.5313 2.80787 8.95492C2.87221 7.48979 3.11836 6.69862 3.32351 6.17117C3.56393 5.52056 3.94494 4.92879 4.44913 4.44804C4.93547 3.9499 5.52163 3.56896 6.17237 3.32882C6.69992 3.1237 7.4972 2.87761 8.95666 2.81305C10.5393 2.74277 11.0142 2.72514 15.0175 2.72514C19.027 2.72514 19.5017 2.74277 21.0786 2.81305C22.544 2.87761 23.3353 3.1237 23.8629 3.32882C24.5134 3.56896 25.1055 3.9499 25.5861 4.44804C26.0844 4.93451 26.4654 5.52056 26.7058 6.17117C26.911 6.69862 27.1571 7.49551 27.2217 8.95492C27.292 10.5373 27.3096 11.0118 27.3096 15.0146C27.3096 19.0174 27.292 19.4862 27.2217 21.0686Z" fill="#151618"/>
<path d="M15.0059 7.29634C10.7505 7.29634 7.29783 10.7481 7.29783 15.0029C7.29783 19.2578 10.7505 22.7095 15.0059 22.7095C19.2616 22.7095 22.714 19.2578 22.714 15.0029C22.714 10.7481 19.2616 7.29634 15.0059 7.29634ZM15.0059 20.002C12.2452 20.002 10.0059 17.7633 10.0059 15.0029C10.0059 12.2425 12.2452 10.0039 15.0059 10.0039C17.7668 10.0039 20.006 12.2425 20.006 15.0029C20.006 17.7633 17.7668 20.002 15.0059 20.002Z" fill="#151618"/>
<path d="M24.8184 6.99164C24.8184 7.98518 24.0127 8.79077 23.0187 8.79077C22.025 8.79077 21.2192 7.98518 21.2192 6.99164C21.2192 5.99787 22.025 5.1925 23.0187 5.1925C24.0127 5.1925 24.8184 5.99787 24.8184 6.99164Z" fill="#151618"/>
</svg>
