<svg width="19" height="30" fill="none" xmlns="http://www.w3.org/2000/svg"><path d="M.28 16.101c-.777 1.507.105 2.227 2.117 3.457 1.71 1.042 4.073 1.423 5.59 1.576l-5.98 5.676c-1.741 1.646 1.061 4.288 2.8 2.676l4.71-4.481c1.802 1.711 3.53 3.351 4.708 4.488 1.741 1.617 4.542-1.002 2.82-2.677-.129-.121-6.38-6.038-6-5.676 1.537-.152 3.864-.556 5.554-1.576v-.002c2.011-1.236 2.893-1.954 2.128-3.46-.463-.856-1.71-1.57-3.369-.335 0 0-2.241 1.694-5.855 1.694-3.616 0-5.856-1.693-5.856-1.693C1.99 14.524.737 15.245.28 16.1z" fill="#151618"/><path d="M9.5 15.178c4.406 0 8.004-3.398 8.004-7.58C17.504 3.397 13.906 0 9.5 0 5.093 0 1.495 3.397 1.495 7.598c0 4.182 3.598 7.58 8.005 7.58zm0-11.33c2.165 0 3.931 1.677 3.931 3.75 0 2.054-1.766 3.73-3.93 3.73-2.166 0-3.932-1.675-3.932-3.73-.001-2.074 1.765-3.75 3.931-3.75z" fill="#151618"/></svg>