<svg width="19" height="30" viewBox="0 0 19 30" fill="none" xmlns="http://www.w3.org/2000/svg">
<path d="M0.279943 16.1013C-0.496634 17.6075 0.385092 18.3275 2.39685 19.5575C4.10709 20.6 6.46976 20.9813 7.98744 21.1338C7.36542 21.7238 10.2158 19.0188 2.00666 26.81C0.266008 28.4563 3.06827 31.0975 4.80765 29.4863L9.51653 25.005C11.3192 26.7163 13.0472 28.3563 14.2254 29.4925C15.966 31.11 18.767 28.4913 17.0454 26.8163C16.9162 26.695 10.6643 20.7775 11.0456 21.14C12.5823 20.9875 14.9095 20.5838 16.5995 19.5638L16.5982 19.5625C18.61 18.3263 19.4917 17.6075 18.7265 16.1013C18.2641 15.2463 17.0175 14.5313 15.358 15.7675C15.358 15.7675 13.1169 17.4613 9.50259 17.4613C5.88701 17.4613 3.64722 15.7675 3.64722 15.7675C1.98892 14.525 0.737275 15.2463 0.279943 16.1013Z" fill="#151618"/>
<path d="M9.50007 15.1775C13.9062 15.1775 17.504 11.78 17.504 7.5975C17.504 3.3975 13.9062 0 9.50007 0C5.0927 0 1.49485 3.3975 1.49485 7.5975C1.49485 11.78 5.0927 15.1775 9.50007 15.1775ZM9.50007 3.84875C11.6651 3.84875 13.4311 5.525 13.4311 7.5975C13.4311 9.6525 11.6651 11.3287 9.50007 11.3287C7.33502 11.3287 5.56904 9.6525 5.56904 7.5975C5.56777 5.52375 7.33376 3.84875 9.50007 3.84875Z" fill="#151618"/>
</svg>
