<svg width="32" height="18" fill="none" xmlns="http://www.w3.org/2000/svg"><path d="M31.715 16.055c-.086-.142-.618-1.282-3.178-3.624-2.68-2.453-2.32-2.055.908-6.296C31.41 3.55 32.197 1.974 31.95 1.3c-.234-.643-1.68-.474-1.68-.474l-4.809.028s-.356-.047-.622.108c-.258.154-.424.51-.424.51s-.762 1.999-1.778 3.698c-2.142 3.587-3 3.776-3.35 3.554-.814-.519-.61-2.087-.61-3.199 0-3.476.534-4.925-1.042-5.3-.524-.124-.908-.207-2.246-.22-1.716-.019-3.17.005-3.993.401-.548.265-.97.854-.712.888.318.041 1.038.191 1.42.704.494.66.476 2.147.476 2.147s.284 4.092-.662 4.6c-.65.35-1.54-.363-3.45-3.618-.978-1.666-1.718-3.51-1.718-3.51s-.142-.343-.396-.526c-.308-.223-.74-.294-.74-.294L1.043.824s-.687.02-.939.314C-.12 1.4.086 1.94.086 1.94s3.58 8.257 7.633 12.42c3.718 3.815 7.939 3.564 7.939 3.564h1.912s.578-.063.872-.377c.272-.287.262-.828.262-.828s-.038-2.53 1.154-2.902c1.174-.367 2.682 2.445 4.28 3.527 1.208.819 2.126.64 2.126.64l4.275-.06s2.236-.136 1.176-1.87z" fill="#151618"/></svg>