<svg width="45" height="45" viewBox="0 0 45 45" xmlns="http://www.w3.org/2000/svg">
<path d="M22.5 0C10.1 0 0 10.1 0 22.5C0 34.9 10.1 45 22.5 45C34.9 45 45 34.9 45 22.5C45 10.1 34.9 0 22.5 0ZM23.4 43.1C21.5 43.1 23.4 43.1 21.5 43.1C10.9 42.6 2.3 34.1 1.9 23.5C1.9 21.6 1.9 23.5 1.9 21.6C2.4 11 10.9 2.4 21.5 2C23.4 2 21.5 2 23.4 2C34 2.5 42.6 11 43 21.6C43 23.5 43 21.6 43 23.5C42.6 34.1 34.1 42.6 23.4 43.1Z" fill="#151618"/>
<path d="M24.3 23C24.3 22.8 24.4 22.7 24.4 22.5C24.4 22.1 24.3 21.8 24 21.5L29.9 8.9C30.1 8.4 29.9 7.9 29.4 7.7C28.9 7.5 28.4 7.7 28.2 8.2L22.3 20.8C21.4 20.9 20.6 21.7 20.6 22.6C20.6 23.6 21.4 24.5 22.5 24.5C22.7 24.5 22.8 24.4 23 24.4L30.3 31.7C30.5 31.9 30.7 32 31 32C31.2 32 31.5 31.9 31.7 31.7C32.1 31.3 32.1 30.7 31.7 30.4L24.3 23Z" fill="#98B61D"/>
</svg>
