<svg width="25" height="25" fill="none" xmlns="http://www.w3.org/2000/svg"><path d="M12.5 0C5.611 0 0 5.611 0 12.5S5.611 25 12.5 25 25 19.389 25 12.5 19.389 0 12.5 0zm.5 23.944h-1.056c-5.888-.277-10.666-5-10.888-10.888V12c.277-5.889 5-10.667 10.888-10.889H13c5.889.278 10.667 5 10.889 10.889v1.056c-.222 5.888-4.945 10.61-10.889 10.888z" fill="#8E81AC"/><path d="M13.5 12.778c0-.111.056-.167.056-.278a.713.713 0 00-.223-.556l3.278-7c.111-.277 0-.555-.278-.666-.277-.111-.555 0-.666.278l-3.278 7c-.5.055-.945.5-.945 1 0 .555.445 1.055 1.056 1.055.111 0 .167-.055.278-.055l4.055 4.055a.505.505 0 00.39.167.6.6 0 00.388-.167c.222-.222.222-.555 0-.722L13.5 12.778z" fill="#8E81AC"/></svg>