<svg viewBox="0 0 26 20" fill="none" xmlns="http://www.w3.org/2000/svg"><path d="M23.709 0H2.192C.996 0 0 1 0 2.2v15.6C0 19 .996 20 2.192 20h21.616C25.004 20 26 19 26 17.8V2.2C25.9 1 24.904 0 23.709 0zM2.192 1.1h21.816c-1.893 1.8-8.07 7.6-10.26 9.6-.2.2-.4.3-.798.3s-.598-.2-.797-.3C9.962 8.8 3.785 2.9 1.893 1.2c.1-.1.199-.1.299-.1zM1.096 17.8V2.2c0-.1 0-.2.1-.3 1.394 1.3 5.777 5.4 8.566 8-2.789 2.5-7.072 6.7-8.567 8.1-.1 0-.1-.1-.1-.2zm22.613 1.1H2.192c-.1 0-.2 0-.2-.1 1.495-1.5 5.878-5.7 8.567-8.1.399.3.698.6.897.9.398.4.996.6 1.494.6s1.096-.2 1.494-.6c.3-.2.598-.5.897-.9 2.79 2.4 7.073 6.7 8.567 8.1 0 .1-.1.1-.2.1zm1.096-1.1c0 .1 0 .2-.1.3-1.395-1.4-5.778-5.6-8.567-8.1 2.79-2.6 7.172-6.7 8.567-8 0 .1.1.2.1.3v15.5z" fill="#8E81AC"/></svg>