<svg width="20" height="18" viewBox="0 0 44 36" xmlns="http://www.w3.org/2000/svg">
<path d="M38.4171 0H3.58294C1.59242 0 0 1.68421 0 3.66564V28.3344C0 30.3158 1.59242 32 3.58294 32H38.4171C40.4076 32 42 30.3158 42 28.3344V3.66564C42 1.58514 40.4076 0 38.4171 0ZM15.5261 15.8514C11.1469 19.6161 4.67772 25.8576 1.99052 28.4334C1.99052 28.3344 1.99052 28.3344 1.99052 28.2353V3.66564C1.99052 3.56656 1.99052 3.46749 1.99052 3.36842C5.17535 6.34056 11.4455 12.0867 15.5261 15.8514ZM22.1943 17.0402C21.8957 17.2384 21.4976 17.5356 21 17.5356C20.5024 17.5356 20.1043 17.2384 19.8057 17.0402C17.5166 14.9598 11.9431 9.80805 3.48341 1.98142H3.58294H38.4171H38.5166C30.0569 9.90712 24.4834 14.9598 22.1943 17.0402ZM17.019 17.2384C17.5166 17.7337 18.0142 18.2291 18.4123 18.5263C19.109 19.2198 20.0047 19.517 20.9005 19.517C21.7962 19.517 22.6919 19.1207 23.3886 18.5263C23.7867 18.13 24.2843 17.7337 24.782 17.2384C29.0616 20.904 35.6303 27.2446 38.4171 29.9195H38.3175H3.48341H3.38388C6.27013 27.2446 12.7393 21.0031 17.019 17.2384ZM26.4739 15.8514C30.5545 12.0867 36.8246 6.34056 40.0095 3.36842C40.0095 3.46749 40.0095 3.56656 40.0095 3.66564V28.3344C40.0095 28.4334 40.0095 28.5325 40.0095 28.5325C37.2227 25.8576 30.7536 19.6161 26.4739 15.8514Z" fill="#98B61D"/>
</svg>
