<svg width="16" height="22" viewBox="0 0 33 45" xmlns="http://www.w3.org/2000/svg">
<path d="M16.5 0C7.35542 0 0 7.74946 0 17.2873C0 30.0043 15.2078 45.0065 15.8042 45.7019C16.003 45.9007 16.2018 46 16.5 46C16.7982 46 16.997 45.9007 17.1958 45.7019C17.7922 45.1058 33 30.0043 33 17.2873C33 7.74946 25.6446 0 16.5 0ZM16.5 2.08639C24.4518 2.08639 30.9126 8.84233 30.9126 17.1879C30.9126 27.5205 19.0843 40.5356 16.5 43.3175C13.9157 40.5356 2.08735 27.6199 2.08735 17.1879C2.08735 8.94169 8.5482 2.08639 16.5 2.08639Z" fill="#98B61D"/>
<path d="M16.4006 7.74939C11.4307 7.74939 7.35544 11.6241 7.35544 16.393C7.35544 21.1619 11.4307 25.0366 16.4006 25.0366C21.3705 25.0366 25.4458 21.1619 25.4458 16.393C25.4458 11.6241 21.3705 7.74939 16.4006 7.74939ZM16.4006 23.3477C12.4247 23.3477 9.1446 20.2677 9.1446 16.393C9.1446 12.5183 12.4247 9.43837 16.4006 9.43837C20.3765 9.43837 23.6566 12.5183 23.6566 16.393C23.6566 20.2677 20.3765 23.3477 16.4006 23.3477Z" fill="#98B61D"/>
</svg>
