<svg width="20" height="28" fill="none" xmlns="http://www.w3.org/2000/svg"><path d="M10 0C4.5 0 0 4.7 0 10.5c0 7.7 9.2 17 9.6 17.3.1.1.3.2.4.2.1 0 .3-.1.4-.2.4-.4 9.6-9.6 9.6-17.3C20 4.7 15.5 0 10 0zm0 26.6c-1.7-1.8-8.9-9.7-8.9-16.1 0-5.1 4-9.3 8.9-9.3s8.9 4.2 8.9 9.3c0 6.4-7.2 14.3-8.9 16.1z" fill="#8E81AC"/><path d="M9.9 4.7c-3 0-5.5 2.4-5.5 5.3s2.5 5.3 5.5 5.3 5.5-2.4 5.5-5.3c0-3-2.4-5.3-5.5-5.3zm0 9.5c-2.4 0-4.4-1.9-4.4-4.2 0-2.3 2-4.2 4.4-4.2 2.4 0 4.4 1.9 4.4 4.2 0 2.3-1.9 4.2-4.4 4.2z" fill="#8E81AC"/></svg>