<svg viewBox="0 0 20 28" width="20" height="28" fill="none" xmlns="http://www.w3.org/2000/svg">
<path d="M10 0C4.5 0 0 4.7 0 10.5C0 18.2 9.2 27.5 9.6 27.8C9.7 27.9 9.9 28 10 28C10.1 28 10.3 27.9 10.4 27.8C10.8 27.4 20 18.2 20 10.5C20 4.7 15.5 0 10 0ZM10 26.6C8.3 24.8 1.1 16.9 1.1 10.5C1.1 5.4 5.1 1.2 10 1.2C14.9 1.2 18.9 5.4 18.9 10.5C18.9 16.9 11.7 24.8 10 26.6Z" fill="#8E81AC"/>
<path d="M9.9 4.7C6.9 4.7 4.4 7.1 4.4 10C4.4 12.9 6.9 15.3 9.9 15.3C12.9 15.3 15.4 12.9 15.4 10C15.4 7 13 4.7 9.9 4.7ZM9.9 14.2C7.5 14.2 5.5 12.3 5.5 10C5.5 7.7 7.5 5.8 9.9 5.8C12.3 5.8 14.3 7.7 14.3 10C14.3 12.3 12.4 14.2 9.9 14.2Z" fill="#8E81AC"/>
</svg>
