<svg viewBox="0 0 16 31" fill="none" xmlns="http://www.w3.org/2000/svg"><path d="M13.515 0H2.385C1.79 0 1.193.3.695.7.2 1.2 0 1.8 0 2.5v26c0 .7.199 1.3.696 1.8.397.5.993.7 1.69.7h11.229c.596 0 1.192-.3 1.69-.7.397-.5.695-1.1.695-1.8v-26c0-.7-.199-1.3-.696-1.8-.497-.4-1.093-.7-1.789-.7zM11.13 1l-.298 1.5H5.068L4.77 1h6.36zm3.876 27.5c0 .4-.1.8-.397 1.1-.298.3-.597.4-.994.4H2.385c-.397 0-.696-.2-.994-.4-.298-.3-.397-.7-.397-1.1v-26c0-.4.1-.8.397-1.1.298-.3.597-.4.994-.4h1.49l.398 2.1c0 .1.1.2.2.3 0 .1.098.1.198.1h6.559c.1 0 .199 0 .298-.1.1-.1.1-.2.199-.3l.397-2.1h1.49c.398 0 .697.2.995.4.298.3.397.7.397 1.1v26z" fill="#8E81AC"/></svg>