<svg width="13" height="22" viewBox="0 0 26 50" xmlns="http://www.w3.org/2000/svg">
<path d="M24.8 1.2C24.1 0.4 23.1 0 22 0H4C2.9 0 1.9 0.4 1.2 1.2C0.4 2 0 3.1 0 4.2V45.7C0 46.8 0.4 47.9 1.2 48.7C1.9 49.6 2.9 50 4 50H22C23.1 50 24.1 49.6 24.8 48.8C25.6 48 26 46.9 26 45.8V4.2C26 3.1 25.6 2 24.8 1.2ZM8.2 2.1H17.8L17.4 4H8.6L8.2 2.1ZM2 4.2C2 3.6 2.2 3.1 2.6 2.7C3 2.3 3.5 2.1 4 2.1H6.2L6.8 5.2C6.8 5.4 7 5.6 7.1 5.8C7.3 6 7.5 6.1 7.7 6.1H18.2C18.4 6.1 18.7 6 18.8 5.9C19 5.7 19.1 5.5 19.1 5.3L19.7 2.2H22C22.5 2.2 23 2.4 23.4 2.8C23.8 3.1 24 3.7 24 4.2V45.7C24 46.3 23.8 46.8 23.4 47.2C23 47.6 22.5 47.8 22 47.8H4C3.5 47.8 3 47.6 2.6 47.2C2.2 46.9 2 46.3 2 45.8V4.2Z" fill="#98B61D"/>
</svg>
