<svg width="20" height="20" viewBox="0 0 46 46" xmlns="http://www.w3.org/2000/svg">
<path d="M22.5 5.9C18.2 5.9 14.8 9.4 14.8 13.6C14.8 17.8 18.3 21.3 22.5 21.3C26.8 21.3 30.2 17.8 30.2 13.6C30.2 9.4 26.7 5.9 22.5 5.9ZM28.2 13.5C28.2 16.7 25.6 19.1 22.5 19.2C19.3 19.2 16.8 16.6 16.8 13.5C16.8 10.4 19.5 7.9 22.6 7.9C25.7 7.9 28.2 10.5 28.2 13.5Z" fill="#98B61D"/>
<path d="M44.9 20.4C43.8 8.8 34.2 0 22.5 0C10 0 0 10.1 0 22.5C0 34.9 10.1 45 22.5 45C23.2 45 23.9 45 24.5 44.9C25.1 44.8 25.7 44.8 26.4 44.6H26.6C38.1 42.3 46 32 44.9 20.4ZM29.7 41.9L29.5 41.7H29.4C28.9 41.9 28.3 42.1 27.8 42.2H27.7C27.1 42.3 26.6 42.5 26.1 42.6V42.8L26 42.6C25.4 42.7 24.8 42.8 24.3 42.8H24.2C22.9 42.9 21.7 42.9 20.6 42.8C20 42.8 19.5 42.7 18.9 42.6V42.8V42.5C18.4 42.4 17.8 42.3 17.3 42.1H17.2C16.7 42 16.2 41.8 15.6 41.6L15.5 41.5C15 41.3 14.5 41.1 14 40.9L13.8 40.8C13.4 40.6 12.9 40.4 12.4 40.1L12.2 40C11.8 39.7 11.3 39.5 10.9 39.2L10.7 39.1C10.3 38.8 9.9 38.5 9.5 38.1V32C9.5 27.7 13.1 24.1 17.4 24.1H27.6C32 24.1 35.5 27.7 35.5 32V38.1C35.1 38.4 34.7 38.8 34.2 39.1L34 39.2C33.6 39.5 33.1 39.8 32.6 40.1L32.5 40.2C32 40.5 31.5 40.7 31.1 40.9C31 40.9 31 40.9 30.9 41C30.4 41.2 29.9 41.4 29.4 41.6L29.7 41.9ZM27.7 22.2H17.3C11.9 22.2 7.39999 26.6 7.39999 32.1V36.3C-6.19888e-06 28.3 0.2 15.7 8 7.9C16 -4.76837e-07 29 -4.76837e-07 36.9 7.9C44.7 15.7 44.9 28.2 37.5 36.3V32.1C37.6 26.6 33.1 22.2 27.7 22.2Z" fill="#98B61D"/>
</svg>
