<svg width="26" height="25" fill="none" xmlns="http://www.w3.org/2000/svg"><path d="M13.022 3.3a4.272 4.272 0 00-4.307 4.3c0 2.4 1.903 4.3 4.307 4.3 2.404 0 4.308-1.9 4.308-4.3s-2.004-4.3-4.308-4.3zm3.206 4.2c0 1.8-1.403 3.1-3.206 3.2-1.803 0-3.206-1.4-3.206-3.2 0-1.8 1.503-3.1 3.206-3.1 1.803 0 3.206 1.4 3.206 3.1z" fill="#8E81AC"/><path d="M25.444 11.3C24.844 4.9 19.534 0 13.022 0 6.11 0 .5 5.6.5 12.5S6.11 25 13.022 25c.4 0 .802 0 1.102-.1.3-.1.701-.1 1.002-.2h.1c6.512-1.2 10.82-6.9 10.218-13.4zM16.93 23.2h-.1l-.902.3h-.1c-.3.1-.6.2-.902.2v.1l.1-.1c-.3.1-.7.1-.9.1h-.101c-.701.1-1.402.1-2.004 0-.3 0-.6-.1-.901-.1v.1-.2c-.3-.1-.601-.1-.902-.2h-.1c-.3-.1-.5-.2-.902-.3l-.1-.1c-.3-.1-.5-.2-.801-.3l-.1-.1c-.2 0-.501-.1-.802-.3l-.1-.1c-.2-.2-.5-.3-.701-.4l-.1-.1c-.2-.2-.401-.3-.702-.5v-3.4c0-2.4 2.004-4.4 4.408-4.4h5.71c2.405 0 4.408 2 4.408 4.4v3.4c-.2.2-.4.4-.701.5l-.1.1c-.2.2-.501.3-.802.5l-.1.1c-.3.2-.5.3-.801.4-.1 0-.1 0-.1.1-.301.1-.501.2-.802.3zm-1.002-10.9h-5.81c-3.005 0-5.51 2.5-5.51 5.5v2.4C.5 15.7.6 8.7 5.008 4.4 9.516 0 16.628 0 21.036 4.4c4.308 4.3 4.508 11.3.3 15.8v-2.4c.101-3-2.403-5.5-5.409-5.5z" fill="#8E81AC"/></svg>