<svg width="21" height="25" viewBox="0 0 21 25" fill="none" xmlns="http://www.w3.org/2000/svg"><path d="M20.569 1.54c-.133-.342-.642-.417-.876-.171a5.816 5.816 0 01-3.826 1.428A5.79 5.79 0 0111.043.233a.528.528 0 00-.876 0A5.8 5.8 0 015.34 2.795 5.808 5.808 0 011.48 1.337a.531.531 0 00-.566-.087.52.52 0 00-.312.475V13.02c0 6.504 9.347 11.697 9.745 11.914a.526.526 0 00.51.002c.397-.217 9.744-5.411 9.744-11.914V1.772a.532.532 0 00-.033-.232zm-1.02 11.48c0 5.331-7.461 9.984-8.947 10.857-1.486-.873-8.946-5.52-8.946-10.856V2.774A6.886 6.886 0 005.34 3.839c2.051 0 3.97-.904 5.262-2.446a6.858 6.858 0 005.265 2.446c1.315 0 2.59-.373 3.682-1.064v10.246z" fill="#716F6F"/><path d="M14.135 9.528a.53.53 0 00-.745 0l-3.84 3.798-1.73-1.715a.53.53 0 00-.745 0 .517.517 0 000 .737l2.101 2.083a.533.533 0 00.744 0l4.215-4.166a.518.518 0 000-.737z" fill="#716F6F"/></svg>