<svg width="26" height="25" viewBox="0 0 26 25" fill="none" xmlns="http://www.w3.org/2000/svg"><path d="M6.6 22.039c-.378 0-.757-.12-1.087-.357a1.8 1.8 0 01-.672-2.054l1.89-5.753-4.945-3.541A1.8 1.8 0 011.11 8.28a1.821 1.821 0 011.76-1.271h6.095l1.86-5.736A1.821 1.821 0 0112.583 0h.002c.817 0 1.508.498 1.76 1.27l1.876 5.74h.66a.49.49 0 01.493.488.49.49 0 01-.492.488h-1.019a.492.492 0 01-.468-.337L13.409 1.57a.844.844 0 00-.824-.594.844.844 0 00-.824.596L9.79 7.647a.492.492 0 01-.468.34H2.87a.843.843 0 00-.824.594.834.834 0 00.317.961l5.235 3.75a.486.486 0 01.18.547L5.777 19.93a.834.834 0 00.314.962.85.85 0 001.02-.001l5.22-3.773a.495.495 0 01.58 0l5.201 3.75a.85.85 0 001.02 0 .834.834 0 00.312-.963l-2.004-6.06a.486.486 0 01.178-.548L22.84 9.54a.834.834 0 00.316-.96.843.843 0 00-.824-.595h-1.019a.49.49 0 01-.492-.488c0-.27.22-.488.492-.488h1.019c.817 0 1.508.498 1.76 1.269a1.8 1.8 0 01-.674 2.053l-4.93 3.546 1.892 5.723a1.8 1.8 0 01-.669 2.056 1.835 1.835 0 01-2.178 0l-4.912-3.54-4.93 3.563c-.332.24-.711.359-1.09.359z" fill="#716F6F"/><path d="M12.6 25a.49.49 0 01-.491-.488v-3.95c0-.269.22-.488.492-.488a.49.49 0 01.492.489v3.949a.49.49 0 01-.492.488zM24.608 16.346a.496.496 0 01-.152-.024l-3.786-1.22a.487.487 0 01-.316-.615.493.493 0 01.62-.314l3.787 1.22a.488.488 0 01-.152.953zM17.681 5.54c-.1 0-.201-.03-.289-.094a.486.486 0 01-.108-.682l2.34-3.195a.495.495 0 01.687-.108c.22.159.269.464.11.682L18.08 5.338a.493.493 0 01-.399.201zM7.52 5.54a.493.493 0 01-.398-.202l-2.34-3.195a.486.486 0 01.108-.682.495.495 0 01.688.108l2.34 3.195a.486.486 0 01-.398.775zM.593 16.346a.488.488 0 01-.152-.953l3.786-1.22a.488.488 0 11.304.929l-3.786 1.22a.498.498 0 01-.152.024zM19.098 7.986a.49.49 0 01-.492-.488.49.49 0 01.492-.488.49.49 0 01.492.488.49.49 0 01-.492.488z" fill="#716F6F"/></svg>