<svg width="25" height="25" viewBox="0 0 25 25" fill="none" xmlns="http://www.w3.org/2000/svg"><path d="M24.823 11.954C24.82 5.351 19.383 0 12.677 0 5.971.001.536 5.356.537 11.96c.001 5.2 3.417 9.805 8.45 11.387a.543.543 0 00.42-.05.5.5 0 00.224-.28l3.067-9.57a1.506 1.506 0 001.51-1.502 1.507 1.507 0 00-1.526-1.487c-.226 0-.448.052-.65.15L7.98 6.617a.512.512 0 00-.715.012c-.19.193-.19.5 0 .692l4.049 3.992a1.451 1.451 0 00.425 1.804l-2.921 9.12C3.043 20.142.087 13.835 2.214 8.15S10.746-.447 16.52 1.647c5.775 2.095 8.731 8.402 6.604 14.088a11.043 11.043 0 01-5.92 6.229l-.316-1.464a.506.506 0 00-.832-.269l-3.044 2.676a.493.493 0 00.183.848l3.887 1.221c.266.084.55-.06.636-.322a.491.491 0 00.014-.256l-.31-1.437c4.493-1.865 7.411-6.205 7.4-11.007zm-12.143-.498c.28 0 .506.223.506.498a.502.502 0 01-.506.498.502.502 0 01-.506-.498c0-.275.226-.498.506-.498zm1.667 11.612l1.732-1.522.479 2.22-2.211-.698z" fill="#716F6F"/><path d="M12.174 2.488v.997c0 .275.226.498.506.498s.506-.223.506-.498v-.997a.502.502 0 00-.506-.498.502.502 0 00-.506.498zM3.067 11.456a.502.502 0 00-.506.498c0 .275.226.498.506.498h1.012c.28 0 .506-.223.506-.498a.502.502 0 00-.506-.498H3.067zM22.293 12.452c.28 0 .506-.223.506-.498a.502.502 0 00-.506-.498h-1.012a.502.502 0 00-.506.498c0 .275.227.498.506.498h1.012z" fill="#716F6F"/></svg>